<svg width="264" height="100" viewBox="0 0 264 100" fill="none" xmlns="http://www.w3.org/2000/svg">
<path fill-rule="evenodd" clip-rule="evenodd" d="M6.375 62.5C6.375 38.125 26.1375 18.75 51 18.75C75.8625 18.75 95.625 38.125 95.625 62.5H89.25C89.25 41.875 72.0375 25 51 25C29.9625 25 12.75 41.875 12.75 62.5H6.375ZM31.875 62.5C31.875 51.875 40.1625 43.75 51 43.75C61.8375 43.75 70.125 51.875 70.125 62.5C70.125 73.125 61.8375 81.25 51 81.25C40.1625 81.25 31.875 73.125 31.875 62.5ZM38.25 62.5C38.25 69.375 43.9875 75 51 75C58.0125 75 63.75 69.375 63.75 62.5C63.75 55.625 58.0125 50 51 50C43.9875 50 38.25 55.625 38.25 62.5Z" fill="#4D87F0"/>
<path d="M140.935 65H135.029L145.783 34.4545H152.614L163.382 65H157.476L149.317 40.7188H149.079L140.935 65ZM141.129 53.0234H157.237V57.468H141.129V53.0234ZM173.759 65.4624C172.307 65.4624 171 65.2038 169.836 64.6868C168.683 64.1598 167.768 63.3842 167.092 62.3601C166.426 61.3359 166.093 60.0732 166.093 58.5717C166.093 57.2791 166.331 56.2102 166.809 55.3651C167.286 54.5199 167.937 53.8438 168.763 53.3366C169.588 52.8295 170.518 52.4467 171.552 52.1882C172.596 51.9197 173.675 51.7259 174.788 51.6065C176.131 51.4673 177.219 51.343 178.055 51.2337C178.89 51.1143 179.496 50.9354 179.874 50.6967C180.262 50.4482 180.456 50.0653 180.456 49.5483V49.4588C180.456 48.3352 180.123 47.4652 179.456 46.8487C178.79 46.2322 177.831 45.924 176.578 45.924C175.256 45.924 174.206 46.2124 173.431 46.7891C172.665 47.3658 172.148 48.0469 171.88 48.8324L166.839 48.1165C167.236 46.7244 167.893 45.5611 168.807 44.6264C169.722 43.6818 170.841 42.9759 172.163 42.5085C173.486 42.0312 174.947 41.7926 176.548 41.7926C177.652 41.7926 178.751 41.9219 179.844 42.1804C180.938 42.4389 181.937 42.8665 182.842 43.4631C183.747 44.0497 184.473 44.8501 185.02 45.8643C185.577 46.8786 185.855 48.1463 185.855 49.6676V65H180.665V61.853H180.486C180.157 62.4893 179.695 63.0859 179.099 63.6428C178.512 64.1896 177.771 64.6321 176.876 64.9702C175.991 65.2983 174.952 65.4624 173.759 65.4624ZM175.161 61.495C176.245 61.495 177.184 61.2812 177.98 60.8537C178.775 60.4162 179.387 59.8395 179.814 59.1236C180.252 58.4077 180.471 57.6271 180.471 56.782V54.0824C180.302 54.2216 180.013 54.3509 179.606 54.4702C179.208 54.5895 178.76 54.6939 178.263 54.7834C177.766 54.8729 177.274 54.9524 176.787 55.022C176.3 55.0916 175.877 55.1513 175.519 55.201C174.714 55.3104 173.993 55.4893 173.356 55.7379C172.72 55.9865 172.218 56.3345 171.85 56.782C171.482 57.2195 171.298 57.7862 171.298 58.4822C171.298 59.4766 171.661 60.2273 172.387 60.7344C173.113 61.2415 174.037 61.495 175.161 61.495ZM196.683 51.5767V65H191.284V42.0909H196.444V45.9837H196.713C197.24 44.701 198.08 43.6818 199.233 42.9261C200.397 42.1705 201.834 41.7926 203.544 41.7926C205.125 41.7926 206.502 42.1307 207.675 42.8068C208.858 43.483 209.773 44.4624 210.42 45.745C211.076 47.0277 211.399 48.5838 211.389 50.4134V65H205.99V51.2486C205.99 49.7173 205.592 48.5192 204.797 47.6541C204.011 46.7891 202.922 46.3565 201.53 46.3565C200.586 46.3565 199.746 46.5653 199.01 46.983C198.284 47.3906 197.712 47.9822 197.295 48.7578C196.887 49.5334 196.683 50.473 196.683 51.5767ZM221.8 57.8111L221.785 51.2933H222.65L230.883 42.0909H237.192L227.064 53.3665H225.946L221.8 57.8111ZM216.878 65V34.4545H222.277V65H216.878ZM231.256 65L223.798 54.5746L227.437 50.7713L237.714 65H231.256ZM246.189 51.5767V65H240.79V34.4545H246.07V45.9837H246.338C246.875 44.6911 247.705 43.6719 248.829 42.9261C249.962 42.1705 251.404 41.7926 253.154 41.7926C254.745 41.7926 256.132 42.1257 257.315 42.7919C258.499 43.4581 259.413 44.4325 260.06 45.7152C260.716 46.9979 261.044 48.5639 261.044 50.4134V65H255.645V51.2486C255.645 49.7074 255.247 48.5092 254.452 47.6541C253.666 46.7891 252.562 46.3565 251.141 46.3565C250.186 46.3565 249.331 46.5653 248.575 46.983C247.83 47.3906 247.243 47.9822 246.815 48.7578C246.398 49.5334 246.189 50.473 246.189 51.5767Z" fill="black"/>
</svg>
