<svg version="1.1" xmlns="http://www.w3.org/2000/svg" viewBox="0 0 3408.9252635146922 1300.4984271442063" width="3408.9252635146922" height="1300.4984271442063">
  <!-- svg-source:excalidraw -->
  
  <defs>
    <style>
      @font-face {
        font-family: "Virgil";
        src: url("https://excalidraw.com/Virgil.woff2");
      }
      @font-face {
        font-family: "Cascadia";
        src: url("https://excalidraw.com/Cascadia.woff2");
      }
    </style>
  </defs>
  <rect x="0" y="0" width="3408.9252635146922" height="1300.4984271442063" fill="#ffffff"></rect><g stroke-linecap="round" transform="translate(505.78647707767163 590.8982722674978) rotate(0 73.19998168945312 82.79999542236328)"><path d="M1.17 -1.76 C51.71 0.9, 105.44 0.69, 146.99 -1.32 M0.48 0.3 C32.14 1.56, 62.33 0.67, 145.7 0.02 M144.45 0.48 C145.18 63.02, 146.75 125.58, 147.67 167.09 M146.5 -0.31 C145.76 37.5, 145.39 74.95, 145.55 165.92 M147.97 166.6 C88.17 166.4, 32.51 164.74, 1.06 163.62 M146.84 164.74 C94.73 164.97, 43.14 165.94, 0.53 164.81 M0.35 165.52 C-0.78 102.99, -0.82 39.31, -0.74 -1.5 M-0.8 164.99 C-1 107.53, -0.97 48.2, -0.06 0.26" stroke="#364fc7" stroke-width="1" fill="none"></path></g><g stroke-linecap="round" transform="translate(394.1860742456404 568.8983142291677) rotate(0 179.19998168945312 103.59999847412108)"><path d="M0.51 0.35 C97.82 -2.37, 194.03 -0.42, 359.42 0.7 M-0.54 -0.56 C118.33 2.16, 236.63 2.14, 358.28 -0.39 M358.12 -0.71 C356.7 48.1, 357.59 96.41, 358.95 208.92 M357.66 -0.21 C359.86 75.03, 360.42 150.51, 358.72 206.94 M358.22 206.64 C282.38 209.77, 203.15 210.05, -0.8 207.06 M357.9 207.18 C232.09 207.9, 105.39 208.07, 0.4 207.44 M-0.31 205.5 C1.76 134.02, 0.51 61.89, -0.98 0.86 M0.49 206.34 C0.67 152.19, 1.3 98.94, -0.05 0.21" stroke="#000000" stroke-width="1" fill="none"></path></g><g transform="translate(294.42413896615744 525.062590715519) rotate(0 116 12.5)"><text x="0" y="18" font-family="Virgil, Segoe UI Emoji" font-size="20px" fill="#000000" text-anchor="start" style="white-space: pre;" direction="ltr">test page [full screen]</text></g><g stroke-linecap="round" transform="translate(1264.0340215025458 575.0697216562743) rotate(0 48.628535679408515 38.80003465924944)"><path d="M0.66 0.96 C25.14 0.83, 55.83 -0.61, 97.9 -1.93 M-0.57 0.75 C25.72 -0.41, 51.47 0.72, 97.21 0.95 M97.6 -0.43 C95.81 21.94, 97.36 40.84, 98.42 77.41 M96.84 -0.13 C96.65 16.21, 98.11 33.24, 96.31 76.9 M99.15 77.04 C64.63 79.42, 33.87 75.66, 0.45 78.7 M97.71 77.79 C68.69 79.08, 40.23 78.5, -0.46 77.86 M0.77 76.11 C-1 52.07, 0.55 22.99, 0.56 0.54 M0.98 77.87 C-0.04 55.16, -1 31.67, 0.95 0.18" stroke="#c92a2a" stroke-width="1" fill="none"></path></g><g stroke-linecap="round" transform="translate(1913.8244209631112 278.6316149377567) rotate(0 179.19998168945312 103.5999984741211)"><path d="M-0.12 -0.16 C122.63 1.6, 248.39 2.76, 358.76 0.41 M0.43 0.4 C113.9 -2.07, 228.59 -2.39, 358.05 0.35 M358.79 -1.23 C358.74 42.7, 359.77 87.01, 357.47 206.48 M358.8 0.45 C358.38 74.24, 358.7 149.06, 358.5 206.55 M357.79 208.18 C238.57 208.14, 118.88 208.76, -0.95 206.05 M358.32 207.8 C241.2 207.23, 122.82 207.18, -0.11 206.71 M1.61 206.97 C-1.49 143.3, -2.05 75.76, -0.79 0.34 M-0.54 206.61 C0.43 162.17, 1.17 117.57, 0.57 0.8" stroke="#000000" stroke-width="1" fill="none"></path></g><g stroke-linecap="round" transform="translate(2022.024555240455 305.2316248559696) rotate(0 73.19998168945312 82.79999542236328)"><path d="M-1.55 -0.59 C33.07 1.42, 63.03 0.82, 146.77 -0.15 M-0.31 -0.22 C56.96 -1.64, 112.12 -0.37, 145.52 0.29 M146.2 -1.48 C147.71 37.98, 145.72 77.45, 147.61 165.37 M146.62 -0.47 C147.73 57.55, 147.27 114.96, 146.74 165.91 M146.48 165.65 C97.02 167.75, 45.39 164.93, 0.57 167.34 M147.18 166.09 C103.97 167.38, 61.94 166.22, 0.16 166.6 M0.39 167.31 C-1.74 127.92, -2.39 91.97, -1.69 -1.06 M-0.61 165.17 C1.24 119.65, 1.66 75.35, -0.87 0.85" stroke="#364fc7" stroke-width="1" fill="none"></path></g><g stroke-linecap="round" transform="translate(1921.2533150060804 598.8222626079576) rotate(0 179.19998168945312 103.59999847412108)"><path d="M-0.69 1.01 C136.25 -2.21, 269.63 -0.93, 358.92 -0.72 M-0.59 -0.57 C118.22 -0.71, 236.07 -0.63, 358.1 0.05 M357.47 0.38 C357.5 65.42, 356.66 133.8, 359.67 206.33 M358.3 -0.04 C359.34 51.49, 358.23 104.16, 357.63 207.22 M358.24 206.19 C225.03 204.12, 88.85 205.09, 0.49 206.92 M358.93 206.58 C239.07 205.79, 120.45 205.55, 0.41 207.21 M-0.93 206.69 C-1.41 149.93, 1.26 89.37, 0.43 -1.18 M0.86 207.21 C-0.03 154.96, -0.53 102.28, -0.07 0.53" stroke="#000000" stroke-width="1" fill="none"></path></g><g stroke-linecap="round" transform="translate(2029.453449283424 625.4222725261704) rotate(0 73.19998168945312 82.79999542236328)"><path d="M1.28 -1.48 C50.12 -0.63, 104.98 -2.29, 146.98 -1 M0.41 0.78 C51.96 2.23, 102.94 1.4, 146.6 -0.15 M145.7 -0.94 C143.89 67.52, 146.97 131.14, 145.42 166.15 M146.89 -0.59 C145.46 34.58, 145.35 68.9, 147.15 166.42 M148.17 164.11 C115.27 164.46, 86.68 164.01, 0.63 165.94 M145.71 165.16 C109.45 163.35, 73.7 164.18, -0.16 165.57 M-1.64 167.42 C2.23 115.29, 1.36 63.77, -0.97 0.68 M0.67 165.52 C-1.51 127.67, -1.69 91.69, 0.6 0.78" stroke="#364fc7" stroke-width="1" fill="none"></path></g><g transform="translate(187.10961027382132 866.3078881020517) rotate(0 94 74.5)"><text x="0" y="17.833333333333332" font-family="Virgil, Segoe UI Emoji" font-size="20px" fill="#000000" text-anchor="start" style="white-space: pre;" direction="ltr">user tries to exit </text><text x="0" y="42.666666666666664" font-family="Virgil, Segoe UI Emoji" font-size="20px" fill="#000000" text-anchor="start" style="white-space: pre;" direction="ltr">full screen</text><text x="0" y="67.5" font-family="Virgil, Segoe UI Emoji" font-size="20px" fill="#000000" text-anchor="start" style="white-space: pre;" direction="ltr"></text><text x="0" y="92.33333333333333" font-family="Virgil, Segoe UI Emoji" font-size="20px" fill="#000000" text-anchor="start" style="white-space: pre;" direction="ltr">message/button: </text><text x="0" y="117.16666666666666" font-family="Virgil, Segoe UI Emoji" font-size="20px" fill="#000000" text-anchor="start" style="white-space: pre;" direction="ltr">go back to </text><text x="0" y="142" font-family="Virgil, Segoe UI Emoji" font-size="20px" fill="#000000" text-anchor="start" style="white-space: pre;" direction="ltr">full screen</text></g><g stroke-linecap="round" transform="translate(2043.6752067511143 408.5773200543258) rotate(0 52.796989468376296 25)"><path d="M0 0 C0 0, 0 0, 0 0 M0 0 C0 0, 0 0, 0 0 M-1.02 6.75 C1.09 4.22, 3.11 1.18, 5.22 -0.03 M-0.41 6.55 C1.38 4.79, 2.61 3.54, 5.04 0.05 M-1.46 12.14 C2.4 10.72, 5.7 8.26, 11.46 1.03 M0.21 11.93 C3.43 8.9, 5.49 6.67, 11.21 -0.73 M0.57 18.47 C6.03 12.13, 13.96 4.16, 14.77 2.19 M-0.98 17.66 C3.76 13.22, 7.23 9.71, 16.1 0.13 M1.73 26.05 C6.14 17.59, 12.63 10.3, 22.54 -1.9 M-0.05 23.49 C8.44 14.71, 15.71 5.72, 21.89 0.16 M-0.46 31.03 C6.72 21.67, 11.63 15.05, 24.49 0.84 M-0.5 30.36 C9.52 18.54, 19.59 8.05, 25.3 0.44 M-1.64 36.12 C10.33 26.58, 21.18 11.8, 33.7 -0.47 M-1.23 37.69 C12.99 21.88, 24.74 7.84, 31.92 0.17 M-0.53 44.3 C11.3 28.84, 24.31 13.03, 38.08 2.08 M-0.73 41.86 C9.24 30.73, 18.54 21.12, 36.89 0.81 M-0.32 48.6 C9.19 36.47, 21.27 26.35, 42.13 0.68 M0.68 48.78 C16.67 29.58, 34.48 8.93, 41.83 0.26 M2.32 52.09 C14.16 42.17, 23.55 29.79, 46.15 1.35 M3.17 52.51 C12.73 39.85, 25.39 27.1, 47.41 1.18 M6.53 51.65 C16.6 39.63, 30.18 28.55, 52.05 1.38 M7.94 51.88 C18.45 40.47, 28.54 27.53, 52.33 -0.84 M13.85 51.71 C21.77 40.92, 31.14 29.76, 58.54 -1.12 M12.99 52.99 C25.06 37.6, 39.64 22.59, 57.8 1.08 M18.49 52.5 C26.89 42.22, 38.97 29.85, 62.92 -1.77 M18.72 52.09 C34.51 35.64, 48.6 17.06, 64.54 -0.77 M24.01 50.55 C37.03 38.97, 48.3 26.23, 68.34 -0.37 M23.8 52.97 C34.92 39.04, 48.14 23.87, 69.33 -0.31 M29.04 52.16 C48.67 30.87, 66.17 11.6, 73.49 0.56 M28.18 51.1 C39.89 37.77, 52.28 23.35, 73.94 0.46 M34.53 50.95 C51.56 32.19, 67.75 11.97, 79.9 1.32 M33.59 51.95 C44.95 38.45, 56.85 24.45, 79.68 -0.2 M41.52 53.33 C56.47 33.59, 74.13 10.55, 85.71 -1.53 M40.51 51.2 C57.11 32.76, 72.18 12.88, 84.38 0.45 M46.38 52.01 C54.98 38.99, 63.78 29.16, 88.83 -1.6 M44.71 53.03 C57.26 37.84, 71.53 21.55, 90.9 -0.14 M50.54 51.48 C62.15 39.26, 74.33 25.54, 96.8 -1.21 M50.24 52.32 C66.9 33.65, 82.21 14.5, 96.11 0.45 M55.77 53.56 C66.26 39.66, 77.92 26.23, 101.97 -1.89 M55.9 52.95 C69.38 33.87, 85.62 17.01, 101.4 -0.11 M61.93 50.83 C75.4 35.03, 86.66 21.54, 106.6 1.87 M60.29 52.01 C73.4 37.54, 85.95 22.46, 105.06 0.06 M66.2 52.19 C82.24 34.72, 98.07 15.56, 104.16 6.43 M66.27 52.07 C79.59 36.2, 93.84 19.69, 106.74 5.61 M72.16 53.09 C80.68 42.77, 86.64 33.41, 105.62 10.62 M71.31 52.19 C84.3 36.7, 98.44 19.64, 105.04 12.35 M76.36 53.25 C89.64 39.65, 100.42 26.84, 104.11 20.84 M77.29 52.38 C83.02 44.13, 91.33 36.23, 105.42 19.09 M82.86 50.47 C85.95 45.18, 92.34 38.38, 106.7 22.8 M82.28 52.16 C88.07 45.47, 94.35 37.06, 105.25 24.1 M88.25 50.81 C91.98 46.49, 95.47 42.24, 104.96 31.26 M86.83 51.49 C93.42 46.01, 97.48 40.71, 105.56 31.68 M92.99 54.18 C96.91 45.53, 104.13 39.34, 108.04 36.26 M92.57 53.09 C96.14 48.31, 99.96 43.46, 105.41 37.06 M98.61 51.83 C102.11 47.19, 104.86 45.04, 105.86 43.96 M97.44 52.37 C100.91 49.45, 102.97 46.46, 106.16 42.79 M102.59 52.17 C103.7 51.93, 104.39 51.09, 105.71 49.53 M102.84 52.48 C103.61 51.42, 104.49 50.44, 105.41 49.33" stroke="#82c91e" stroke-width="0.5" fill="none"></path><path d="M-0.89 1.33 C34.64 0.22, 67.5 2, 106.7 -1.09 M0.82 0.71 C29.85 -0.79, 61.38 -1.7, 105.73 0.89 M104.6 1.05 C105.26 19.03, 104.78 38.53, 105.48 51.86 M106.55 0.28 C104.36 19.1, 104.97 39.78, 104.89 50.28 M104.65 49.65 C75.12 50.58, 46.6 52.41, 1.8 50.91 M104.99 49.25 C75.61 48.68, 45.78 49.47, -0.09 49.52 M-1.72 50.5 C-1.66 32.27, -0.71 13.85, -1.56 -1.89 M0.8 49.97 C-0.58 33.79, -0.19 17.04, 0.21 -0.27" stroke="#000000" stroke-width="1" fill="none"></path></g><g transform="translate(2048.972196219491 413.5773200543258) rotate(0 47.5 20)"><text x="47.5" y="15" font-family="Virgil, Segoe UI Emoji" font-size="16px" fill="#000000" text-anchor="middle" style="white-space: pre;" direction="ltr">Timer of 10</text><text x="47.5" y="35" font-family="Virgil, Segoe UI Emoji" font-size="16px" fill="#000000" text-anchor="middle" style="white-space: pre;" direction="ltr">secs.</text></g><g stroke-linecap="round" transform="translate(2893.7097795010586 581.4315173541675) rotate(0 179.19998168945312 103.59999847412108)"><path d="M0.9 0.9 C118.11 -1.67, 235.36 -1.68, 357.85 0.53 M-0.41 0.39 C127.21 0.91, 255.84 0.25, 359.01 0.52 M359.52 0.97 C356.38 81.54, 358.75 164.91, 358.7 208.88 M357.78 -0.22 C359.09 79.19, 359.01 160.02, 357.62 206.55 M357.56 208.39 C260.19 207.83, 160.44 207.87, -1.05 207.85 M358.27 206.72 C282.03 208.57, 204.77 209.23, 0.54 207.61 M-0.96 207.95 C1.48 162.59, 0.89 118.07, -0.9 -1.77 M0.3 207.72 C-0.23 138.93, -0.51 71.4, -0.66 -0.7" stroke="#000000" stroke-width="1" fill="none"></path></g><g stroke-linecap="round" transform="translate(2999.57661604891 606.6981379901539) rotate(0 73.19998168945312 82.79999542236328)"><path d="M0 0 C0 0, 0 0, 0 0 M0 0 C0 0, 0 0, 0 0 M0.46 6.44 C2.21 4.22, 3.34 1.01, 5.23 0.26 M-0.47 6.43 C0.94 4.97, 2.54 2.47, 5.36 0.65 M1.08 12.49 C3.37 7.08, 4.54 5.14, 12.08 0.19 M-0.02 11.71 C3.75 8.4, 6.13 4.96, 10.67 -0.44 M1.74 17.12 C3.88 12.46, 12.72 6.33, 14.67 -0.21 M0.68 18.73 C4.21 12.76, 7.55 9.72, 16 1.1 M2.12 22.42 C6.91 17.59, 10.8 12.04, 23.12 0.79 M1.16 23.1 C5.31 17.84, 10.49 13.16, 21.69 -0.39 M-0.41 30.71 C6.43 21.87, 14.21 15.18, 27.01 0.63 M-0.84 29.81 C7.21 22.34, 14.65 12.16, 25.36 0.57 M-1.8 38.22 C5.68 26.27, 13.73 21.39, 31.63 1.45 M-1.21 36.62 C7.94 28.43, 14.18 19.67, 31.36 -0.2 M-0.54 40.98 C11.58 30.01, 21.79 15.42, 37.59 -0.29 M0.33 42.53 C8.47 34.07, 16.14 23.13, 37.35 -0.4 M0.85 48.59 C9.09 39.62, 18.66 29.8, 42.58 -0.33 M-0.01 48.28 C17.54 29.74, 35.11 10.04, 43.23 -1.04 M0.94 54.41 C12.47 38.01, 28.36 23.24, 48.62 -1.12 M0.25 55.31 C17.6 34.96, 35.15 13.11, 47.7 -0.09 M-1.37 61.12 C9.47 48.48, 20.39 35.33, 51.82 1.68 M0.35 60.06 C18.24 39.7, 37.9 16.87, 53.22 -0.35 M-1.77 66.95 C14.62 50.38, 29.09 35.35, 57.59 0.73 M0.67 66.95 C15.99 47.06, 33.36 29.95, 58.52 0.88 M0.01 71.41 C20.57 49.8, 38.65 30.24, 62.44 -1.55 M0.47 72.84 C20.81 48.21, 42.15 25.23, 63.63 0.03 M-1.27 81.07 C17.05 57.5, 36.81 37.6, 69.21 0.59 M-0.3 79.61 C14.55 60.92, 31.14 44.1, 68.31 -0.5 M0.71 83.79 C28.95 52.22, 56.71 21.06, 72.8 1.68 M-0.67 85.09 C19.17 63.8, 37.39 43.52, 75.12 -0.1 M-0.87 90.24 C19.85 69.2, 40.63 41.38, 79.45 -1.44 M-0.15 91.35 C19.24 69.18, 37.63 47.33, 79.9 0.36 M-0.94 96.12 C14.79 76.32, 33.86 58.54, 84.48 -0.15 M-0.37 97.68 C20.6 74.13, 42.74 49.15, 84.74 0.69 M0.03 103.92 C18.42 81.86, 40.93 56.65, 91.54 -0.53 M0.68 103.1 C30.32 69.27, 60.43 36.28, 90.53 -0.29 M-1.42 108.71 C32.31 70.13, 67.93 30.07, 94.35 -1.84 M0.43 110.85 C18.74 86.41, 39.83 63.66, 95.92 -0.55 M1.29 116.32 C34.41 77.45, 66.57 41.44, 99.95 0.92 M0.1 115.4 C27.91 84.4, 55.37 52.61, 99.82 -0.58 M0.09 120.91 C25.34 92.19, 51.97 62.75, 106.49 -1.42 M-0.83 122.7 C44.18 72.84, 85.36 24.26, 106.44 -1.16 M1.33 127.17 C24.52 100.83, 47.51 74.68, 110.41 1.25 M-0.26 129.18 C42.63 79.12, 85.66 28.47, 111.74 0.95 M0.32 132.07 C38.62 92.93, 72.13 52.87, 115.6 0.59 M0.33 134.22 C25.07 105.89, 49.95 79.29, 115.82 -0.07 M-0.17 138.67 C42.83 89.95, 85.16 41.42, 123.88 -0.46 M-0.4 140.72 C46.97 87.87, 94.05 33.88, 122.66 -0.56 M-0.77 146.28 C35.57 107.31, 67.95 66.23, 125.58 2.13 M0.77 146.03 C28.8 112.96, 57.12 79.79, 125.92 1.13 M1.54 152.07 C36.83 112.54, 71.42 71.61, 132.59 -0.33 M0.05 152.24 C37.86 108.67, 77.27 63.56, 133.22 -0.35 M-0.56 157.31 C33.26 120.34, 63.69 84.58, 137.62 0.19 M-0.86 159.07 C51.4 97.3, 104.79 38.18, 137.06 0.69 M-0.11 164.48 C41.27 115.61, 84.05 64.75, 143.9 -1.64 M0.48 164.68 C50.16 106.97, 99.67 50.17, 142.82 -0.16 M3.14 169.41 C57.88 105.15, 113.19 39.91, 148.11 0.53 M2.73 168.66 C55.33 107.31, 108.68 47.51, 147.67 0.73 M5.77 169.51 C38.05 131.78, 69.95 94.93, 146.42 7.85 M7.98 168.53 C51.33 118.69, 95.42 67.12, 147.9 7.6 M13.06 168.83 C54.72 119.15, 98.4 71.34, 148.35 11.43 M12.51 167.35 C45.23 129.45, 77.98 92.17, 148.41 12.42 M18.19 166.88 C54.87 127.56, 90.7 84.37, 148.07 20.03 M18.81 168.64 C62.99 115.96, 110.17 61.88, 147.44 19.58 M21.94 167.16 C57.78 130.55, 91.54 90.1, 147.78 23.67 M24.57 166.77 C56.56 132.64, 88.05 96.24, 147.29 24.8 M29.12 167.3 C68.33 124.09, 105.27 80.46, 146.47 32.83 M28.12 168.59 C72.38 118.01, 115.15 68.67, 147.3 32.43 M34.13 168.1 C70.94 122.91, 108.76 83.31, 148.44 37.72 M33.89 167.96 C75.27 120.19, 116.09 73.71, 147.84 38.87 M40.19 167.17 C66.05 138.37, 91.66 109.32, 145.96 41.87 M38.87 167.99 C60.33 142.98, 82.3 117.41, 148.18 43.01 M45.09 168.38 C66.57 142.63, 87.55 119.25, 145.8 51.85 M45.52 167.23 C78.99 128.17, 113.47 88.29, 148.25 50.72 M48.48 167.44 C88.91 125.03, 124.13 80.77, 146.28 55.51 M50.37 168 C80.12 133.55, 110.68 98.91, 147.04 55.82 M57.56 169.33 C79.19 138.13, 105.3 111.79, 148.57 63.53 M54.93 168.56 C78.8 138.7, 104.43 109.73, 147.04 62.4 M62.35 169.84 C87.69 135.82, 113.96 102.68, 145.74 67.59 M60.28 167.43 C84.17 141.33, 109.13 111.99, 146.6 67.73 M65.49 169.04 C90.22 140, 113.84 114.49, 149.34 74.21 M65.98 167.57 C85.26 144.33, 105.13 122.94, 147.74 74.83 M69.4 168.82 C92.58 146.79, 111.39 121.61, 147.88 78.44 M70.65 168.69 C90.56 145.93, 111.04 123.45, 147.9 80.95 M78.11 166.35 C98.67 142.43, 124.13 115.12, 147.96 86.12 M76.9 167.48 C96.72 144.35, 117.77 120.16, 148.29 86.56 M80.47 167.61 C97.67 149.89, 114.19 131.39, 149.51 91.41 M81.9 167.85 C105.57 140.45, 130.34 112.64, 148.39 91.61 M87.9 168.86 C100.22 155.03, 112.63 137.73, 146.88 98.98 M88.3 167.17 C101.19 151.44, 114.23 137.41, 146.31 98.52 M93.65 166.17 C113.56 145.73, 132.92 118.19, 147.36 105.83 M92.82 168.56 C108.21 149.84, 124.86 132, 148.56 104.69 M98.57 168.9 C111.83 154.04, 124.84 137.04, 145.74 110.99 M99.17 167.11 C116.46 145.73, 134.98 123.8, 147.8 111 M102.31 169.21 C119.8 148.6, 135.35 132.61, 149.39 117.79 M102.59 168.14 C114.35 154.72, 125.81 141.25, 147.25 116.8 M109.1 167.56 C118.35 155.87, 126.98 144.48, 149.5 123.36 M108.85 167.43 C121.3 154.54, 131.29 141.1, 147.13 122.18 M115.03 166.2 C126.75 152.89, 138.32 139.11, 146.18 128.89 M114.75 167.5 C123.12 157.24, 133.2 144.92, 147.05 128.94 M117.72 166.68 C126.31 159.81, 138.28 147.41, 146.99 133.32 M119.09 167.85 C127.2 159.66, 134.83 149.53, 147.74 135.11 M123.66 167.35 C127.61 164.14, 135.09 157.89, 145.5 143.2 M125.21 167.19 C132.95 158.8, 139.79 149.44, 146.88 141.46 M129.23 169.6 C135.45 163.49, 141.44 155.41, 146.33 146.83 M129.33 168.49 C134.66 160.63, 142.32 153.5, 147.41 146.46 M135.29 167.64 C137.17 165.55, 144.01 160.82, 148.39 151.91 M134.32 167.41 C139.87 162.11, 144.33 157.99, 148.03 152.63 M140.95 167.05 C140.43 167.07, 142.38 163.84, 146.68 159.57 M139.67 168.51 C142.28 165.44, 144.14 163.09, 147.49 159.52" stroke="#fa5252" stroke-width="0.5" fill="none"></path><path d="M-0.01 0.12 C53.74 -0.93, 109.39 -0.2, 147.52 1.34 M144.95 0.45 C146.88 42.51, 147.25 89.87, 148.31 165.03 M144.72 165.13 C115.55 167.53, 83.07 168.29, 1.68 166.45 M-0.21 164.66 C0.75 134.26, -0.59 97.85, -0.46 -0.75" stroke="#a61e4d" stroke-width="1.5" fill="none" stroke-dasharray="8 9"></path></g><g stroke-linecap="round" transform="translate(3011.599447590029 645.110334987594) rotate(0 62.26665242513036 42.5)"><path d="M0 0 C0 0, 0 0, 0 0 M0 0 C0 0, 0 0, 0 0 M0.39 6.77 C0.62 5.35, 2.42 3.43, 5.23 0.44 M0.07 6.71 C1.08 5.07, 2.18 3.45, 4.8 0.3 M0.74 12.48 C4.67 8.31, 6.69 3.75, 10.75 0.58 M0.2 11.49 C2.74 9.71, 4.49 6.11, 11.27 0.29 M0.56 20.42 C2.75 13.49, 8.76 9.19, 15.88 -1.35 M-0.83 18.57 C4.55 14.89, 7.23 9.48, 15.54 -0.12 M1.61 24.49 C5.91 18.86, 13.07 9.35, 22.21 -0.84 M1.08 23.59 C8.78 14.19, 17.69 4.45, 20.32 0.09 M-0.37 29.8 C8.68 18.33, 21.23 6.23, 25.94 1.93 M-0.65 31.22 C8.33 20.17, 19.17 9.94, 26.75 0.57 M1.62 34.89 C8.92 28.06, 15.08 21.02, 31.81 -1.1 M-0.48 37.19 C11.61 23.23, 21.16 10.69, 32.37 -0.66 M0.54 41.58 C9.41 31.76, 18.26 18.66, 36.38 -0.16 M0.99 42.72 C7.61 33.79, 14.32 24.49, 37.7 1.2 M1.84 48.75 C16.25 29.92, 31.67 12.68, 41.8 1.78 M-1.12 49.05 C9.7 39.24, 18.74 28.67, 43.31 -0.14 M0.53 54.58 C15.65 35.36, 31.87 18.89, 47.04 -1.4 M0.32 54.33 C13.21 40.97, 25.07 25.83, 48.3 0.31 M0.45 62.04 C17.92 39.04, 33.06 18.65, 53.66 -1.59 M0.94 59.99 C18.16 40.34, 35.07 19.7, 53.26 -1 M-0.61 69.15 C12.02 50.46, 26.1 36.84, 57.03 1.17 M-0.72 67.65 C17.59 45.94, 37.18 26.69, 58.84 0.09 M-0.44 74.72 C14.04 57.5, 28.41 41.92, 64.11 0.11 M0.49 73.68 C24.91 44.09, 50.11 16.22, 64.7 -0.26 M-1.82 80.12 C18.08 58.14, 41.05 32.69, 68.68 -0.73 M0.17 79.66 C21.85 54.63, 43.04 29.18, 68.01 0.33 M0.52 83.51 C26.72 57.58, 50.12 27.28, 73.12 -1.02 M0.69 85.41 C15.94 65.8, 32.5 47.95, 74.48 0.71 M4.44 87.31 C21.85 63.92, 40.84 44.38, 79.61 1.37 M4.94 85.19 C20.93 67.77, 35.8 50.1, 78.83 0.46 M10.4 85.8 C33.11 62.85, 51.72 36.77, 83.92 -0.14 M11.59 84.05 C27.01 67.29, 43.35 48.65, 85.83 0.13 M16.42 84.54 C37.72 62.8, 57.14 41.79, 90.65 0.68 M15.33 85.98 C33.34 63.26, 51.67 43.45, 90.74 -0.48 M22.58 83.87 C39.13 66.29, 53.02 48.95, 94.97 0.34 M20.61 84.2 C47.01 52.67, 73.8 22.93, 96.37 -0.12 M26.32 84.45 C52.21 54.28, 80.09 22.37, 101.9 -0.83 M26.18 85.42 C49.07 59.27, 71.64 32.83, 101.53 0.19 M32.14 84.7 C61.3 51.19, 88.86 20.14, 108.01 -1.24 M32.05 84.05 C60.4 52.24, 88.86 20.54, 106.07 -0.57 M38.88 86.37 C54.47 64.95, 70.1 47.29, 112.71 -0.46 M37.99 84.5 C66.35 52.39, 95.34 18.34, 111.36 0.77 M41.44 83.99 C62.4 64.03, 79.71 43.06, 115.34 -1.04 M42.57 85.39 C69.52 54.65, 96.02 22.98, 116.64 0.64 M46.06 86.4 C70.8 56.97, 94.83 29.89, 121.69 1.27 M47.62 85.83 C69.57 61.8, 88.93 38.89, 122.78 -0.82 M52.06 86.22 C80.79 53.57, 106.68 24, 125.85 0.03 M53.23 85.65 C79.59 55.05, 107.38 22.88, 125.46 1.52 M59.09 85.38 C85.14 58.28, 108.55 25.14, 124.1 8.11 M58.28 85.66 C76.98 62.93, 98.22 39.9, 126.16 6.52 M64.86 84.6 C76.44 68.33, 91.24 53.31, 124.52 14.63 M63.44 83.88 C76.55 68.84, 90.02 53.82, 125.15 14.48 M68.44 84.89 C87.8 61.03, 109.2 35.78, 127.69 18.02 M69.6 85.83 C87.59 62.73, 109.15 39.51, 125.41 18.94 M75.94 85.08 C86.93 72.35, 101.91 57.57, 125.21 27.27 M74.99 84.74 C87.42 68.67, 102.1 54.02, 126.34 26.68 M79.83 83.28 C93.04 69.41, 107.51 54.97, 124.73 32.17 M79.56 85.84 C94.17 69.8, 106.68 54.14, 126.13 30.71 M83.99 87.15 C95.22 75.75, 106.39 61.95, 125.24 36.8 M85.4 85.3 C97.46 71.8, 108.06 57.17, 126.23 38.5 M90.24 83.64 C102.57 67.01, 116.54 51.37, 126.16 45.79 M90.5 84.79 C101.97 71.41, 115.78 56.64, 125.72 45.01 M96.91 84.76 C105.23 75.42, 111.74 65.92, 125.84 50.06 M94.53 85.96 C106.42 71.67, 118.27 58.47, 127.06 49.16 M99.89 85.8 C109.43 74.28, 116.93 65.85, 124.14 56.59 M101.17 85.43 C109.26 75.84, 116.59 67.7, 125.91 56.38 M107.9 86.87 C112.42 80.61, 115.14 71.44, 127.48 62.64 M106.64 85.04 C114.05 75.81, 122.48 67.14, 125.43 61.54 M112.25 86.35 C115.4 81.99, 121.29 75.42, 124.11 69.28 M110.67 84.11 C117.08 78.85, 121.71 73.8, 126.83 69.26 M117.6 86.14 C120.85 82.32, 121.58 79.03, 125.38 75.39 M116.88 85.62 C119.57 81.52, 124.18 76.75, 125.69 74.86 M122.15 85.51 C123.04 83.18, 125.06 81.28, 126.52 80.52 M122.28 84.96 C123.75 83.35, 124.71 82.11, 125.99 80.62" stroke="#fa5252" stroke-width="0.5" fill="none"></path><path d="M-0.52 -1.93 C32.37 0.18, 68.31 -0.16, 125.86 -1.91 M0.41 0.49 C34.03 1.3, 70.12 1.14, 123.84 -0.72 M123.99 -0.88 C123.14 19.54, 124.14 37.11, 123.04 86.32 M123.68 -0.51 C125.52 32.31, 124.51 62.95, 125.53 84.92 M125.83 84.97 C99.12 86.98, 69.96 86.2, 0.44 85.16 M125.52 84.17 C96.5 84.59, 69.09 83.99, 0.72 85.63 M-0.3 83.84 C1.5 58.76, -0.27 33.3, -0.61 -1.49 M0.49 85.68 C-0.35 51.95, -0.35 20.02, 0.15 -0.13" stroke="#000000" stroke-width="1" fill="none"></path></g><g transform="translate(3016.8661000151596 661.0103594016565) rotate(0 57 25)"><text x="57" y="18" font-family="Virgil, Segoe UI Emoji" font-size="20px" fill="#000000" text-anchor="middle" style="white-space: pre;" direction="ltr">Exam</text><text x="57" y="43" font-family="Virgil, Segoe UI Emoji" font-size="20px" fill="#000000" text-anchor="middle" style="white-space: pre;" direction="ltr">Terminated</text></g><g stroke-linecap="round" transform="translate(387.91932772464475 1083.2984301959643) rotate(0 179.19998168945312 103.59999847412107)"><path d="M-0.16 1 C97.81 -2.23, 198.45 -2.76, 358.08 0.9 M-0.13 0.36 C73.22 1.88, 146.72 1.5, 358.04 0.32 M359.37 -1.32 C359.53 48.55, 357.12 95.71, 359.71 207.7 M358.26 -0.79 C358.19 81.71, 359.39 162.43, 357.9 207.21 M357.24 207.46 C251.19 206.92, 145.25 206.61, -0.91 208.32 M358.95 207.51 C234.45 207.47, 111.17 208.06, 0.47 206.88 M-1.07 207.31 C-0.28 156, -1.36 99.79, 1.44 -1.76 M-0.43 207.14 C-0.51 128.7, -1.39 49.57, 0.31 0.19" stroke="#000000" stroke-width="1" fill="none"></path></g><g stroke-linecap="round" transform="translate(498.7861642724963 1108.5650508319507) rotate(0 73.19998168945312 82.79999542236331)"><path d="M0 0 C0 0, 0 0, 0 0 M0 0 C0 0, 0 0, 0 0 M0.36 7.2 C1.72 3.64, 4.05 1.42, 5.63 0.93 M0.1 6.51 C1.22 4.63, 2.87 3.07, 4.99 0.5 M-1.41 10.68 C4.88 8.69, 8.04 4.18, 10.7 -0.6 M-0.13 11.52 C5.1 7.71, 8.42 2.69, 9.93 -0.21 M1.04 16.98 C3.15 14.03, 9.85 6.01, 14.6 -0.48 M0.12 19.08 C4.8 12.36, 10.19 5.91, 16.02 1.12 M-1.38 23.4 C6.17 16.02, 13.7 9.98, 21.14 -1.14 M0.95 24.33 C6.42 18.86, 11.66 13.07, 21.98 -1.04 M0.08 30.06 C10.37 19.54, 19.45 8.62, 26.06 -1.61 M0.42 30.7 C5.1 24.41, 12.8 16, 26.35 0.62 M0 36.93 C6.33 25.92, 14.26 19.35, 31.65 1.48 M-0.23 37.72 C9.48 25.48, 19.79 13.43, 31.36 -1.09 M0.88 41.25 C14.65 26.43, 29.92 8.27, 38.06 -0.65 M-0.85 43.39 C8.52 33.73, 14.81 25.36, 37.27 0.39 M-0.25 47.37 C13.07 33.11, 28.18 17.16, 40.98 0.46 M-0.62 48.72 C14.21 31.36, 30.11 13.38, 43.36 -0.43 M1.17 52.88 C10.27 39.69, 23.49 29.32, 46.95 0.12 M0.3 54.64 C15.74 36, 33.61 17, 48.45 -0.77 M0.56 62.2 C21.06 39.4, 37.98 16.14, 55.08 -2.11 M-0.72 60.36 C18 40.1, 35.35 18.66, 53.85 0.57 M1.25 68.78 C17.26 42.83, 36.98 21.5, 56.32 -0.84 M-0.44 68.3 C15.97 47.59, 32.69 28.5, 57.93 -0.43 M1.02 72.88 C16.28 54.6, 28.27 38.98, 63.19 0.61 M0.02 72.6 C23.4 46.94, 45.17 19.73, 63.05 -0.86 M-1.34 79.31 C25.23 49.96, 50.68 20.4, 69.03 -0.3 M-1.02 79.62 C26.58 48.03, 53.37 17.51, 68.13 -0.55 M-1 83.64 C30.81 51.56, 59.18 15.83, 73.77 0.21 M0.53 84.96 C22.79 61.68, 43.85 36.77, 73.58 0.13 M0.22 89.78 C20.65 65.05, 43.47 40.84, 79.17 1.7 M-0.98 91.69 C16.77 70.26, 35.36 49.98, 79.85 0.55 M-1.08 96.18 C17.1 76.61, 37.85 55.23, 86.56 1.03 M-0.56 97.38 C28.2 65.48, 58.65 30.21, 84.41 0.03 M0.65 101.56 C33.35 66.41, 69.3 26.89, 88.09 1.86 M-0.85 102.52 C27.33 71.97, 55.25 41.17, 90.26 0.16 M-1.55 110.72 C25.36 80.26, 50.68 51.03, 96.51 0.15 M-0.27 109.14 C31.38 73.46, 61.93 37.98, 94.91 -1.03 M1.92 116.72 C31.33 85.2, 58.63 50.45, 100.39 1.66 M1.24 115.71 C27.95 83.03, 55.97 52.57, 100.9 -0.78 M0.52 122.47 C35.6 79.34, 73.72 35.91, 105.86 -0.57 M0.79 121.44 C41.36 72.72, 83.62 25.12, 106.8 -1.34 M0.61 126.87 C22.84 100.73, 47.87 73.78, 111.91 -0.69 M-1.15 129.25 C22.98 103.64, 45.68 77.35, 111.69 0.27 M0 134.65 C35.15 92.74, 70.37 53.25, 115.43 2.2 M1.04 134.31 C30.98 97.36, 62.5 63.37, 115.54 1.23 M-1.51 142.08 C29.75 106.85, 60.54 73.74, 121.76 1.78 M-0.09 140.5 C31.71 103.87, 64.41 66.51, 120.93 -0.52 M-1.03 147.22 C30.96 110.52, 60.11 77.4, 127.24 2.29 M1.28 145.42 C28.34 116.42, 54.93 86.06, 126.92 0.16 M-1.22 151.54 C36.43 113.07, 72.38 71.86, 132.3 0.69 M0.67 152.66 C30.65 116, 62.31 79.73, 133.21 0.57 M-1.69 157.79 C34.47 117.77, 71 76.41, 136.72 0.53 M-0.01 158.84 C38.41 113.49, 76.68 69.71, 137.19 0.75 M0.03 164.11 C35.1 125.03, 68.49 84.51, 144.81 0.65 M0.65 164 C35.97 124.06, 68.95 84.67, 143.73 -0.7 M2.07 167.01 C48.89 109.89, 98.95 55.37, 146.3 2.37 M2.72 167.08 C42.71 123.57, 83.36 78.11, 146.88 0.28 M8 169.3 C53.85 117.21, 98.73 62.67, 146.5 6.62 M6.86 167.74 C58.3 110.05, 108.1 53.13, 147.34 7.7 M14.83 167.85 C47.63 125.76, 81.52 85.28, 148.88 12.59 M13.88 167.13 C59.67 113.19, 108.79 57.01, 148.2 12.71 M16.33 166.75 C66.97 113.34, 112.91 60.08, 147.01 20.96 M19.07 167.8 C47.35 132.47, 79.19 96.79, 148.34 19.92 M24.45 168.57 C59.08 129.26, 93.41 90.19, 148.92 25.41 M24.1 168.33 C56.68 130.33, 91.16 90.96, 147.42 24.47 M30.24 167.07 C76.67 115.56, 120.75 60.68, 146.18 30.3 M28.83 169.06 C61.91 126.57, 97.45 88.37, 146.87 31.5 M32.61 168.76 C61.18 134.4, 88.84 101.36, 146.12 37.08 M33.82 168.6 C68.86 129.16, 102.58 90.41, 147.93 37.44 M37.78 166.49 C73.22 127.93, 105.69 90.71, 146.52 41.99 M38.9 168.07 C72.71 132.38, 104.12 96.95, 147.49 44.42 M45.09 168.88 C74.24 131.97, 105.81 99.78, 146.15 49.85 M44.17 167.29 C74.86 132.2, 106.15 97.19, 147.86 50.81 M50.17 169.86 C74.1 144.66, 94.36 118.81, 145.86 56.25 M50.51 167.07 C87.15 124.94, 124.13 82.81, 147.13 56.21 M54.75 166.14 C87.95 128.41, 119.74 93.23, 147.83 61.09 M56.57 167.44 C82.42 137.36, 106.52 106.97, 147.65 61.7 M61.88 166.76 C87.63 135.84, 117.83 100.2, 148.65 66.8 M61.27 167.92 C81.89 144.82, 103.57 120.45, 146.41 68.81 M65.69 166.52 C86.14 147.12, 101.31 126.97, 145.88 72.13 M66.82 167.74 C85.29 146.62, 104.73 123.61, 146.79 74.08 M70.63 167.54 C90.4 145.76, 105.96 125.26, 148.54 81.85 M71.17 168.11 C98.51 136.19, 125.09 105.59, 148.33 79.51 M77.25 168.72 C101.73 141.82, 120.44 114.29, 146.27 85.05 M77.08 168.47 C97.88 142.95, 118.85 117.76, 147.13 85.58 M81.4 167.28 C105.88 141.56, 126.69 113.33, 148.49 92.61 M82.56 168.74 C103.28 141.57, 126.89 116.73, 148.27 91.49 M88.03 168.22 C107.49 147.15, 122.95 126.97, 145.57 99.45 M87.91 167.56 C109.33 141.34, 133.12 115.75, 148.25 98.18 M94.41 169.84 C116.15 144.8, 134.11 119.69, 147.33 106.29 M92.18 168.56 C113.84 144.63, 133.59 121.38, 146.66 104.8 M99.88 169.22 C110.66 151.94, 125.74 136.83, 145.57 109.42 M98.21 166.57 C114.58 148.37, 132.46 128.14, 148.06 111.23 M105.13 167.78 C114.56 155.81, 125.63 142.71, 147.17 114.87 M103.12 167.92 C112.72 157.77, 121.39 147.21, 148.28 117.1 M109.9 168.69 C122.73 153.33, 138.67 135.85, 149.33 124.04 M109.29 166.66 C116.05 157.95, 124.51 147.93, 146.9 121.98 M112.28 166.46 C124.06 156.89, 130.49 145.8, 148.69 127.82 M112.88 168.82 C126.09 154.84, 138.43 139.58, 147.65 128.45 M118.43 168.35 C130.92 157.73, 139.57 143.37, 147.83 136.41 M118.82 166.64 C131.25 154.03, 141.15 141.63, 148.12 134.54 M125.84 167.97 C132.71 158.87, 139.44 152.64, 145.81 141.08 M125.31 166.86 C130.61 159.23, 138.17 151.37, 147.62 142.27 M128.42 167.42 C134.89 161.14, 136.59 156.34, 147.28 148.36 M130.18 167.68 C134.38 163.55, 138.29 158.61, 147.46 146.64 M135.03 167.17 C139.18 164.66, 141.19 158.12, 145.8 153.62 M134.67 167.3 C137.99 163.44, 142.32 160.54, 147.48 153.84 M140.03 167.83 C143.12 165.71, 144.22 164.28, 147.95 159.51 M139.53 168.23 C141.83 165.83, 144.32 164.18, 146.77 160.14" stroke="#fa5252" stroke-width="0.5" fill="none"></path><path d="M-1.8 -0.71 C56.2 -2.69, 110.19 0.25, 144.51 -0.52 M145.08 0.03 C144.32 34.91, 144.92 73.19, 144.99 164.91 M148.38 166.73 C104.85 165.21, 66.23 165.07, 1.81 166.18 M-1.67 167.34 C1.3 119.78, -0.87 71.46, -0.07 -1.05" stroke="#a61e4d" stroke-width="1.5" fill="none" stroke-dasharray="8 9"></path></g><g stroke-linecap="round"><g transform="translate(742.7050002146232 796.3675473085577) rotate(0 1.4755780964912901 133.56779411137103)"><path d="M-1.13 -0.68 C-0.32 44.04, 3.38 223.29, 4.08 267.82 M0.48 1.58 C1.25 45.98, 3.14 221.63, 3.41 265.91" stroke="#000000" stroke-width="1" fill="none"></path></g><g transform="translate(742.7050002146232 796.3675473085577) rotate(0 1.4755780964912901 133.56779411137103)"><path d="M-8.23 238.69 C-4.07 243.71, -3.88 252.7, 2.35 264.26 M-6.74 238.74 C-3.42 246.34, -0.91 256.06, 3.47 264.95" stroke="#000000" stroke-width="1" fill="none"></path></g><g transform="translate(742.7050002146232 796.3675473085577) rotate(0 1.4755780964912901 133.56779411137103)"><path d="M12.29 238.51 C11.65 243.38, 7.05 252.41, 2.35 264.26 M13.78 238.56 C10.31 246.21, 6.03 255.99, 3.47 264.95" stroke="#000000" stroke-width="1" fill="none"></path></g></g><g transform="translate(768.9188739573224 878.7363806935462) rotate(0 119 49.5)"><text x="0" y="17.75" font-family="Virgil, Segoe UI Emoji" font-size="20px" fill="#000000" text-anchor="start" style="white-space: pre;" direction="ltr">if multiple tabs open</text><text x="0" y="42.5" font-family="Virgil, Segoe UI Emoji" font-size="20px" fill="#000000" text-anchor="start" style="white-space: pre;" direction="ltr">tabs &gt;= 2, disable page</text><text x="0" y="67.25" font-family="Virgil, Segoe UI Emoji" font-size="20px" fill="#000000" text-anchor="start" style="white-space: pre;" direction="ltr"></text><text x="0" y="92" font-family="Virgil, Segoe UI Emoji" font-size="20px" fill="#000000" text-anchor="start" style="white-space: pre;" direction="ltr">message: close all tabs</text></g><g stroke-linecap="round"><g transform="translate(387.5186299154607 793.8004517842483) rotate(0 0.43381314888745237 136.28575482993512)"><path d="M-0.53 0.43 C-0.33 45.81, 0.27 226.25, 0.43 271.5 M1.39 -0.4 C1.56 45.25, 0.05 227.34, -0.19 272.97" stroke="#000000" stroke-width="1" fill="none"></path></g><g transform="translate(387.5186299154607 793.8004517842483) rotate(0 0.43381314888745237 136.28575482993512)"><path d="M-9.55 245.77 C-8.27 252.48, -5.17 259.83, -1.66 274.38 M-10.75 244.38 C-6.91 251.77, -5.25 259.57, 0.32 273.74" stroke="#000000" stroke-width="1" fill="none"></path></g><g transform="translate(387.5186299154607 793.8004517842483) rotate(0 0.43381314888745237 136.28575482993512)"><path d="M10.97 245.91 C7.39 252.49, 5.63 259.82, -1.66 274.38 M9.77 244.52 C8.4 251.82, 4.86 259.58, 0.32 273.74" stroke="#000000" stroke-width="1" fill="none"></path></g></g><g stroke-linecap="round" transform="translate(519.6755220994219 1155.2439816347296) rotate(0 53.333333333333485 21.33331298828125)"><path d="M0 0 C0 0, 0 0, 0 0 M0 0 C0 0, 0 0, 0 0 M0.49 6.52 C2.06 4.78, 4.58 1.26, 5.24 0 M-0.41 6.42 C1.66 4.17, 2.98 2.69, 4.97 0.68 M0.46 11.33 C4.32 7.39, 7.76 3.78, 9.99 -0.83 M0.33 12.57 C2.68 7.8, 6.28 5.21, 11.38 -0.83 M0.57 19.97 C6.48 11.13, 7.79 5.63, 14.81 0.34 M-0.08 18.79 C5.49 11.26, 12.86 4.09, 14.78 1.25 M-1.29 23.93 C7.26 14.79, 13.15 6.39, 20.76 -0.06 M-0.67 23.97 C7.49 14.74, 14.85 6.1, 20.5 0.34 M1.64 31.29 C10.07 17.63, 19.42 9.6, 25 0.11 M0.33 30.16 C8.66 21.79, 16.67 10.38, 27.22 1 M-2.21 35.02 C9.41 23.9, 22.56 10.59, 30.81 -0.37 M-0.18 36.42 C9.97 24.08, 19.85 13.79, 31.55 0.12 M-1.1 43.51 C15.19 27.82, 30.11 9.62, 37.63 0.25 M0.19 42.96 C7.43 34.23, 16.25 23.65, 37.19 0.5 M6.79 41.35 C16.96 29.54, 27.9 16.05, 41.82 1.15 M4.83 43.12 C18.1 28.19, 31.2 13.85, 42.46 0.59 M9.7 42.65 C19.39 32.58, 26.88 22.86, 46.92 1.48 M11.24 41.93 C19.77 33.32, 28.19 22.35, 47.25 0.23 M16.29 43.42 C22.25 35.35, 31.05 23.44, 52.38 -1.17 M15.76 43.81 C23.44 33.53, 31.73 23.54, 52.58 0.43 M23.13 42.13 C35.19 25.8, 52.54 7.11, 59.84 -0.23 M21.84 42.3 C35.9 26.65, 50.74 10.56, 57.56 1.06 M24.99 42.21 C33.79 31.74, 45.17 22.76, 61.84 -1.71 M27.03 41.88 C40.99 27.62, 54.36 10.84, 62.91 0.68 M31.53 42.55 C43.21 29.51, 52.7 17.07, 68.1 -1.65 M32.49 41.63 C44.42 29.11, 55.76 14.84, 67.94 0.22 M37.61 43.97 C45.19 32.4, 54.4 24.16, 74.27 0.36 M37.95 43.06 C45.66 31.51, 56.29 20.57, 74.05 -1.24 M43.99 43.75 C49.72 34.28, 57.95 23.3, 80.17 -0.31 M43.28 41.83 C54.29 30.33, 64.91 15.59, 79.79 -0.7 M47.62 42.15 C61.92 27.55, 76.32 10.73, 86.53 1.14 M47.43 43.47 C61.24 25.36, 76.36 10, 84.25 0.47 M54.35 40.84 C63.17 34.29, 68.32 22, 89.26 1.51 M53.96 43.19 C63.22 32.05, 73.33 20.6, 90.16 0.31 M57.23 41.49 C67.94 34.98, 75.11 24.56, 96.2 -0.01 M58.03 43.58 C69.32 30.22, 79.23 18.72, 95.36 -0.02 M65.2 44.17 C76.89 26.5, 87.4 13.75, 101.34 0.78 M63.89 42.39 C76.01 26.92, 89.88 12.57, 99.75 -0.42 M69.4 41.95 C82.05 28.23, 89.82 18.07, 105.62 -0.51 M67.91 42.26 C81.7 28.59, 93.11 15.74, 106.86 -0.17 M75.22 44.08 C86.96 28.81, 100.24 10.67, 109.15 3.99 M73.4 43.22 C86.25 29.18, 98.53 15.6, 108.86 2.13 M79.85 42.76 C85.44 33.57, 96.52 26.78, 110 10.56 M78.88 42.72 C87.5 32.33, 96.13 22.34, 110 8 M85.82 43.91 C91.24 35.9, 98.51 28.13, 109.6 14.16 M84.4 43.61 C92.81 33.55, 99.53 26.19, 108.87 14.59 M89.05 42.39 C97.95 34.93, 104.72 25.68, 110.45 20.24 M90.36 42.59 C94.67 36.34, 100.22 29.88, 108.77 19.74 M93.17 44.52 C100.68 36.78, 106.35 30.15, 111.44 28.2 M94.5 42.08 C98 39.4, 103.41 33.62, 109.85 26.66 M101.71 42.57 C103.89 38.05, 106.97 34.84, 109.87 33.49 M101.19 42.1 C104.1 39.53, 106.57 36.04, 109.85 33.38 M106.06 42.51 C106.59 42.13, 107.88 40.95, 109.54 39.58 M105.72 42.9 C106.83 41.61, 108.29 40.15, 108.88 39.1" stroke="#82c91e" stroke-width="0.5" fill="none"></path><path d="M-1.74 -1.65 C33.96 1.66, 68.14 1.24, 108.55 -1.89 M-0.88 -0.84 C39.87 0.15, 78.22 0.51, 106.42 -0.12 M108.62 0.84 C105.24 11.41, 104.69 24.98, 107 42.99 M106.63 0.71 C107.24 12.1, 107.15 23.28, 106.49 43.57 M105.57 43.39 C75.93 43.7, 42.41 43.8, 0.35 43.7 M106.3 43.64 C67.54 43.08, 26.54 44.32, -0.14 42.77 M-0.17 44.19 C-0.83 30.59, 0.49 19.12, -1.67 -1.14 M-0.96 43.39 C0.34 27.52, 0.14 13.29, 0.07 0.57" stroke="#000000" stroke-width="1" fill="none"></path></g><g transform="translate(524.6755220994219 1164.0772946230109) rotate(0 48.333333333333485 12.5)"><text x="48.33333333333345" y="18" font-family="Virgil, Segoe UI Emoji" font-size="20px" fill="#000000" text-anchor="middle" style="white-space: pre;" direction="ltr">Message</text></g><g stroke-linecap="round" transform="translate(403.7384791034576 68.18406302880942) rotate(0 179.19998168945312 162.59999465942383)"><path d="M0.08 0.98 C141.01 1.58, 278.41 2.4, 357.14 1.02 M-0.04 0.58 C133.33 1.05, 266.21 1.32, 358.53 0 M358.26 -1.34 C357.18 110.61, 358.56 219.92, 357.82 325.26 M357.8 -0.23 C360.1 86.76, 360.86 172.18, 358.5 324.59 M357.36 325.94 C257.91 326.4, 160.16 327.39, -0.45 324.55 M358.73 325.36 C265.68 326.13, 172.37 326.03, 0.17 325.46 M-0.64 324.06 C-0.48 201.7, -0.63 79.16, 0.22 -0.08 M-0.36 325.67 C1.38 245.66, 1.63 165.53, 0.54 0.5" stroke="#000000" stroke-width="1" fill="none"></path></g><g stroke-linecap="round" transform="translate(543.8341745990626 260.80671562360226) rotate(0 35.199951171875114 34.840757417406735)"><path d="M2 0.33 C15.21 1.07, 31.76 1.06, 71.83 -0.34 M0.27 -0.08 C17.54 -0.3, 35.64 -0.64, 70.76 -0.02 M68.7 1.93 C70.63 18.23, 69.49 32.61, 69.7 71.6 M69.74 0.91 C70.24 16.21, 69.95 31.79, 70.18 69.95 M68.94 67.99 C43.62 69.96, 13.37 69.08, -0.8 70.71 M71.05 69.18 C45.81 69.21, 20.75 70.26, 0.79 69.69 M-0.68 69.51 C-0.58 43.09, 0.64 14.29, -1.07 -1.07 M0.25 70.6 C0.98 51.74, 1.13 32.56, -0.97 0.51" stroke="#e67700" stroke-width="1" fill="none"></path></g><g stroke-linecap="round" transform="translate(508.28114997679404 348.53335307979535) rotate(0 70.66665649414051 17.5)"><path d="M0 0 C0 0, 0 0, 0 0 M0 0 C0 0, 0 0, 0 0 M-0.66 7.04 C0.61 5.04, 1.84 2.64, 5.05 0.1 M-0.27 6.16 C1.41 3.93, 3.61 1.95, 5.31 0.04 M0.01 11.09 C4.05 9.81, 3.89 6.62, 9.79 0.64 M-0.57 12.02 C4.37 6.86, 8.11 1.63, 11.3 0.62 M1.21 20.35 C6.37 13.54, 9.41 7.72, 14.07 1.47 M0.2 18.61 C4.83 12.29, 9.45 8.52, 15.07 0.71 M1.45 23.06 C5.31 19.18, 9.87 12.65, 22.27 0.32 M0.55 23.36 C5.15 16.7, 10.91 11.13, 20.4 -1.07 M-1.14 29.52 C10.92 21.3, 17.82 8.11, 24.5 0.46 M-0.12 31.42 C6.98 22.44, 15.77 13.69, 27.08 0.2 M0.16 35.92 C9.37 26.08, 17.71 15.7, 30.52 -0.05 M1.57 36.33 C12.01 23.55, 22.91 10.93, 32.11 0.15 M5.55 35.69 C15.19 23.69, 26.93 13.7, 35.75 -1.71 M6.35 34.78 C15.99 23.07, 27.96 10.56, 36.83 1.07 M13.61 35.46 C18.51 26.53, 29.96 17.39, 42.05 -1.07 M12.01 35.9 C21.78 24.31, 30.68 12.54, 42.42 -0.35 M16.69 34.59 C23.39 25.97, 30.28 18.37, 47.93 -0.21 M17.57 35.94 C28.15 22.77, 36.95 10.65, 46.93 0.74 M20.4 37.61 C30.4 22.7, 43.31 9.99, 53.32 -0.27 M21.48 36.06 C28.43 27.71, 35.78 19.36, 52.74 -0.94 M29.15 36.99 C32.88 27.15, 41.79 17.47, 57.86 1.07 M27.9 36.3 C39.08 21.39, 51.16 9.38, 57.6 1.01 M31.68 35.95 C41.35 21.93, 54.66 10.93, 65.56 0.08 M33.01 35.61 C38.98 27.41, 44.94 19.79, 64.12 0.36 M37.15 35.61 C45.92 26.07, 55.27 16.53, 67.14 1.48 M37.86 36.33 C49.03 23.52, 61.27 10.18, 68.72 0.04 M41.39 37.58 C51.3 22.67, 62.2 10.25, 72.72 0.94 M43.33 35.96 C49.74 26.75, 55.7 19.18, 75.23 -0.11 M47.66 34.41 C59.55 23.47, 70.13 12.33, 78.11 -0.4 M47.65 34.88 C57.88 24.81, 66.8 14.21, 79.77 0.39 M52.87 36.11 C60.78 24.18, 71.34 16.36, 85.52 -1.46 M53.42 36.16 C61.69 26.13, 69.22 18.75, 84.37 0.4 M60.38 36.62 C72.42 20.5, 84.42 8.26, 89.85 1.3 M59.06 35.2 C70.59 21.39, 81.63 8.68, 89.87 0.96 M62.2 36.38 C75.36 22.58, 85.64 12.64, 95.42 0.35 M63.88 35.63 C74.73 24.18, 82.76 12.65, 95.47 -1.01 M71.78 36.72 C81.89 22.05, 91.57 11.92, 102.22 -0.34 M69.51 34.9 C78.54 26.18, 86.73 17.57, 99.74 -0.94 M74.23 34.48 C79.42 28.56, 89.74 20.91, 106.65 1.1 M74.95 36.16 C83.42 25.69, 93.15 15.04, 106.07 -0.86 M79.08 36.42 C92.4 24.17, 103.28 9.18, 111.79 -0.97 M80.05 35.94 C87.81 27.79, 93.42 19.9, 111.74 0.36 M86.54 37.77 C93.73 29.26, 98.17 19.17, 115.5 -0.5 M84.5 35.93 C93.39 26.58, 103.53 16.81, 116.7 -0.53 M92.25 36.7 C98.83 24.54, 104.18 19.07, 123.91 -0.98 M91.35 34.69 C97.05 27.29, 104.45 22.02, 121.88 0.89 M97.48 36.85 C107.03 21.49, 118.32 11.41, 125 -0.72 M96.01 35.48 C102.74 26.34, 111.04 19.7, 127.46 0.7 M101.98 33.78 C112.12 25.5, 120.32 17.33, 132.67 -1.54 M101.72 35.89 C112.01 23.47, 122.94 11.6, 131.75 -0.91 M106.14 37.55 C114.85 26.64, 126.54 14.04, 136.97 1.67 M106.59 35.72 C116.14 23.45, 126.12 12.55, 138.12 0.19 M111.77 35.14 C124.01 23.32, 132.8 9.4, 144.24 0.22 M113.08 34.64 C119.96 27.03, 128.07 18.32, 141.93 0.5 M116.35 36.99 C127.04 27.3, 135.14 15.78, 140.71 5.17 M116.98 35.97 C126.18 24.58, 135.95 13.68, 142.83 7.71 M121.8 35.49 C128.87 26.82, 137.39 21.91, 141.05 12.2 M122.97 34.42 C129.26 27, 136.51 18.39, 142.11 12.85 M128.71 35.5 C131.78 33.1, 135.12 26.39, 141.51 19.25 M127.54 35.87 C130.62 31.59, 135.1 27.32, 142.57 19.12 M133.25 36.29 C134.69 32.01, 136.94 31.83, 141.14 24.81 M134.23 35.17 C136.13 31.72, 140.14 28.03, 142.02 25.26 M139.18 35.98 C139.23 34.75, 140.48 33.43, 141.97 31.66 M138.49 35.62 C140.01 34.1, 141.68 31.9, 142.74 31.06" stroke="#ced4da" stroke-width="0.5" fill="none"></path><path d="M-0.94 1.5 C54.78 2.36, 107.74 -0.71, 141.61 -0.51 M-0.32 0.48 C48.15 -0.62, 95.85 0.97, 140.38 -0.07 M141.11 -0.16 C143.16 8.62, 140.83 21.18, 139.72 36.3 M141.65 0.29 C141.2 11.61, 140.68 21.27, 141.3 34.53 M142.57 35.55 C92.66 34.7, 43.83 35.96, -1.57 36.49 M141.58 35.18 C86.21 34.96, 32.36 35.45, -0.47 35.58 M0.64 33.41 C-0.4 23.29, -0.75 6.35, 0.74 0.43 M0.78 34.65 C0.07 25.08, -0.41 15.3, -0.44 -0.32" stroke="#000000" stroke-width="1" fill="none"></path></g><g transform="translate(513.281149976794 353.53335307979535) rotate(0 65.66665649414051 12.5)"><text x="65.66665649414051" y="18" font-family="Virgil, Segoe UI Emoji" font-size="20px" fill="#000000" text-anchor="middle" style="white-space: pre;" direction="ltr">Start Exam</text></g><g transform="translate(455.6144222749715 222.06668336137102) rotate(0 131 12.5)"><text x="0" y="18" font-family="Virgil, Segoe UI Emoji" font-size="20px" fill="#000000" text-anchor="start" style="white-space: pre;" direction="ltr">Face Verification/Snapshot</text></g><g stroke-linecap="round"><g transform="translate(572.8847582538956 425.3840523476571) rotate(0 -0.1250457910031173 55.78568293218355)"><path d="M-0.47 0.16 C-0.67 18.83, -0.78 93.89, -1.09 112.37 M1.49 -0.8 C1.17 17.51, -1.52 91.88, -1.74 110.7" stroke="#000000" stroke-width="1" fill="none"></path></g><g transform="translate(572.8847582538956 425.3840523476571) rotate(0 -0.1250457910031173 55.78568293218355)"><path d="M-11.02 83.21 C-6.8 89.97, -6.02 101.47, -2.83 108.99 M-11.23 82.38 C-8.77 88, -8.17 94.74, -2.19 110.21" stroke="#000000" stroke-width="1" fill="none"></path></g><g transform="translate(572.8847582538956 425.3840523476571) rotate(0 -0.1250457910031173 55.78568293218355)"><path d="M9.5 83.73 C7.34 90.25, 1.74 101.59, -2.83 108.99 M9.28 82.9 C7.45 88.6, 3.77 95.24, -2.19 110.21" stroke="#000000" stroke-width="1" fill="none"></path></g></g><g stroke-linecap="round"><g transform="translate(772.2598010813454 677.1585094188176) rotate(0 219.59835232512194 -0.05003759941022423)"><path d="M-0.63 -1.16 C72.58 -0.87, 366.74 0.72, 439.82 1.06 M1.25 0.85 C74.35 0.89, 366.3 -0.21, 439.48 -0.51" stroke="#000000" stroke-width="1" fill="none"></path></g><g transform="translate(772.2598010813454 677.1585094188176) rotate(0 219.59835232512194 -0.05003759941022423)"><path d="M409.4 11.78 C422.91 5.06, 432.42 1.56, 440.51 -2.25 M410.74 10.02 C420.35 7.52, 428.22 2.79, 439.08 -0.26" stroke="#000000" stroke-width="1" fill="none"></path></g><g transform="translate(772.2598010813454 677.1585094188176) rotate(0 219.59835232512194 -0.05003759941022423)"><path d="M409.32 -8.74 C422.74 -8.34, 432.28 -4.71, 440.51 -2.25 M410.66 -10.5 C420.21 -7.15, 428.09 -6.02, 439.08 -0.26" stroke="#000000" stroke-width="1" fill="none"></path></g></g><g transform="translate(876.8313197522898 621.1507162168791) rotate(0 136 25)"><text x="0" y="18" font-family="Virgil, Segoe UI Emoji" font-size="20px" fill="#000000" text-anchor="start" style="white-space: pre;" direction="ltr">(randomly) taking audio </text><text x="0" y="43" font-family="Virgil, Segoe UI Emoji" font-size="20px" fill="#000000" text-anchor="start" style="white-space: pre;" direction="ltr">and image input, periodically</text></g><g stroke-linecap="round" transform="translate(1934.0149523758719 873.8695721201414) rotate(0 179.19998168945312 103.5999984741211)"><path d="M0.38 0.07 C82.3 -1.8, 163.87 -1.85, 359.35 0.1 M-0.18 -0.02 C71.89 0.53, 145.14 -0.35, 358.13 -0.11 M359.7 0.6 C359.8 44.73, 356.95 89.74, 358.3 206.46 M358.31 -0.03 C356.61 77.56, 357.15 154.38, 358.62 207.48 M359.12 207.13 C236.95 207.86, 117.38 207.62, -1.09 208.18 M358.05 206.99 C278.53 206.18, 197.53 205.84, -0.03 206.93 M-0.47 207.19 C-2.55 137.42, -0.43 70.15, -1.21 -1.13 M-0.7 206.62 C-1.73 151.63, -1.33 96.37, 0.31 -0.52" stroke="#000000" stroke-width="1" fill="none"></path></g><g stroke-linecap="round" transform="translate(2042.2150866532156 900.4695820383542) rotate(0 73.19998168945312 82.79999542236328)"><path d="M-0.24 -0.61 C29.24 -0.67, 62.09 1.32, 146.4 -0.18 M0.55 -0.41 C41.7 0.19, 82.58 -1.54, 147.36 -0.16 M147.3 1.1 C144.89 48.79, 146.92 102.36, 147 165.11 M146.83 -0.09 C147.91 58.45, 147.41 117.51, 146.19 165.27 M145.86 165.85 C91.68 165.87, 34.89 165.83, -1.88 167.18 M146.4 164.81 C109.53 166.22, 73.37 165.93, 0.37 165.13 M1.83 165.31 C-0.49 116.65, -1.6 70.62, -1.39 1.96 M0.85 165.7 C-0.48 129.93, -1.36 94.71, 0.55 -0.63" stroke="#364fc7" stroke-width="1" fill="none"></path></g><g stroke-linecap="round"><g transform="translate(1376.2293794550624 570.2848939479869) rotate(0 260.7903168654225 -99.52282784878642)"><path d="M-1.14 0.39 C85.76 -32.79, 433.26 -166.2, 520.55 -199.43 M0.46 -0.45 C87.79 -33.39, 435.74 -164.42, 522.72 -197.87" stroke="#000000" stroke-width="1" fill="none"></path></g><g transform="translate(1376.2293794550624 570.2848939479869) rotate(0 260.7903168654225 -99.52282784878642)"><path d="M500.66 -179.98 C505.42 -180.87, 511.34 -186.76, 521.97 -196.67 M499.98 -178.1 C508.35 -184.72, 515.68 -192.66, 522.32 -198.74" stroke="#000000" stroke-width="1" fill="none"></path></g><g transform="translate(1376.2293794550624 570.2848939479869) rotate(0 260.7903168654225 -99.52282784878642)"><path d="M493.37 -199.16 C499.75 -195.55, 507.36 -197.01, 521.97 -196.67 M492.69 -197.28 C503.82 -197.05, 513.73 -198.19, 522.32 -198.74" stroke="#000000" stroke-width="1" fill="none"></path></g></g><g transform="translate(1595.4583242243275 391.5712944620121) rotate(0 50 37)"><text x="0" y="17.666666666666668" font-family="Virgil, Segoe UI Emoji" font-size="20px" fill="#000000" text-anchor="start" style="white-space: pre;" direction="ltr">detecting </text><text x="0" y="42.333333333333336" font-family="Virgil, Segoe UI Emoji" font-size="20px" fill="#000000" text-anchor="start" style="white-space: pre;" direction="ltr">multiple</text><text x="0" y="67" font-family="Virgil, Segoe UI Emoji" font-size="20px" fill="#000000" text-anchor="start" style="white-space: pre;" direction="ltr">people</text></g><g stroke-linecap="round"><g transform="translate(1380.1540062979234 608.5633055277904) rotate(0 260.31698606111263 -4.570682323533802)"><path d="M-0.55 0.36 C86.26 -0.92, 434.13 -6.23, 521.18 -7.73 M1.37 -0.5 C87.97 -2.12, 433.54 -8.35, 520.18 -9.5" stroke="#000000" stroke-width="1" fill="none"></path></g><g transform="translate(1380.1540062979234 608.5633055277904) rotate(0 260.31698606111263 -4.570682323533802)"><path d="M492.75 1.04 C502.55 -1.47, 510.36 -5.83, 519.63 -8.33 M491.48 0.68 C499.85 -1.36, 506.35 -5.08, 520.19 -9.69" stroke="#000000" stroke-width="1" fill="none"></path></g><g transform="translate(1380.1540062979234 608.5633055277904) rotate(0 260.31698606111263 -4.570682323533802)"><path d="M492.42 -19.48 C502.32 -15.19, 510.24 -12.77, 519.63 -8.33 M491.15 -19.84 C499.55 -16.45, 506.15 -14.74, 520.19 -9.69" stroke="#000000" stroke-width="1" fill="none"></path></g></g><g stroke-linecap="round"><g transform="translate(1381.1377463825215 773.8140653133939) rotate(0 266.92705306948346 113.0372753623162)"><path d="M-1.12 0.1 C87.95 37.56, 445.54 187.82, 534.97 225.58 M0.49 -0.89 C89.38 36.67, 445.07 189.35, 534.18 226.96" stroke="#000000" stroke-width="1" fill="none"></path></g><g transform="translate(1381.1377463825215 773.8140653133939) rotate(0 266.92705306948346 113.0372753623162)"><path d="M504.4 225.85 C514.17 227.54, 526.44 225.39, 535.16 225.47 M503.69 225.1 C514.31 226.86, 524.12 225.83, 533.44 227.79" stroke="#000000" stroke-width="1" fill="none"></path></g><g transform="translate(1381.1377463825215 773.8140653133939) rotate(0 266.92705306948346 113.0372753623162)"><path d="M512.44 206.97 C519.54 215.16, 529.01 219.58, 535.16 225.47 M511.74 206.23 C519.84 214.06, 527.07 219.11, 533.44 227.79" stroke="#000000" stroke-width="1" fill="none"></path></g></g><g transform="translate(1525.9459876364913 867.3345842287504) rotate(0 108 74.5)"><text x="0" y="17.833333333333332" font-family="Virgil, Segoe UI Emoji" font-size="20px" fill="#000000" text-anchor="start" style="white-space: pre;" direction="ltr">detecting</text><text x="0" y="42.666666666666664" font-family="Virgil, Segoe UI Emoji" font-size="20px" fill="#000000" text-anchor="start" style="white-space: pre;" direction="ltr">human speech</text><text x="0" y="67.5" font-family="Virgil, Segoe UI Emoji" font-size="20px" fill="#000000" text-anchor="start" style="white-space: pre;" direction="ltr"></text><text x="0" y="92.33333333333333" font-family="Virgil, Segoe UI Emoji" font-size="20px" fill="#000000" text-anchor="start" style="white-space: pre;" direction="ltr">- match for audio</text><text x="0" y="117.16666666666666" font-family="Virgil, Segoe UI Emoji" font-size="20px" fill="#000000" text-anchor="start" style="white-space: pre;" direction="ltr">- checking decibels for</text><text x="0" y="142" font-family="Virgil, Segoe UI Emoji" font-size="20px" fill="#000000" text-anchor="start" style="white-space: pre;" direction="ltr">the voice</text></g><g transform="translate(1585.6805115693164 614.0983344894487) rotate(0 89 37)"><text x="0" y="17.666666666666668" font-family="Virgil, Segoe UI Emoji" font-size="20px" fill="#000000" text-anchor="start" style="white-space: pre;" direction="ltr">detecting certain </text><text x="0" y="42.333333333333336" font-family="Virgil, Segoe UI Emoji" font-size="20px" fill="#000000" text-anchor="start" style="white-space: pre;" direction="ltr">percentage of</text><text x="0" y="67" font-family="Virgil, Segoe UI Emoji" font-size="20px" fill="#000000" text-anchor="start" style="white-space: pre;" direction="ltr">face covered</text></g><g stroke-linecap="round" transform="translate(1258.9347404325017 689.6172313014929) rotate(0 54 36.40585275996383)"><path d="M0.76 -0.93 C31.88 -0.92, 63.3 0.37, 108.52 0.1 M-0.25 -0.4 C36.31 -0.8, 70.66 0.41, 107.93 -0.19 M107.41 1.88 C109.13 17.99, 107.73 38.22, 109.12 71.81 M107.84 0.63 C106.8 28.76, 108.03 57.54, 107.74 72.35 M107.85 71.41 C85.39 72.45, 58.12 72.31, 0.45 71.11 M108.83 72.08 C79.93 74.06, 54.35 73.06, 0.28 73.45 M0.42 71.96 C-1.56 47.78, -1 21.6, -1.48 -1 M0.81 72.92 C0.23 46.14, 0.38 20.46, 0.94 0.04" stroke="#c92a2a" stroke-width="1" fill="none"></path></g><g stroke-linecap="round"><g transform="translate(2296.0866088933517 450.8288249978107) rotate(0 291.9169248408382 110.18326039314103)"><path d="M0.11 0.53 C97.31 37.23, 485.53 184.13, 582.96 220.6 M-1.3 -0.24 C96.28 36.11, 487.53 182.19, 585.13 218.99" stroke="#c92a2a" stroke-width="1" fill="none"></path></g><g transform="translate(2296.0866088933517 450.8288249978107) rotate(0 291.9169248408382 110.18326039314103)"><path d="M556.02 216.97 C565.14 219.94, 571.5 220.6, 585.84 219.88 M555.93 218.82 C566.48 217.98, 577.33 218.77, 585.22 219.48" stroke="#c92a2a" stroke-width="1" fill="none"></path></g><g transform="translate(2296.0866088933517 450.8288249978107) rotate(0 291.9169248408382 110.18326039314103)"><path d="M563.22 197.76 C570.39 206.12, 574.73 212.15, 585.84 219.88 M563.13 199.6 C570.73 206.11, 578.81 214.28, 585.22 219.48" stroke="#c92a2a" stroke-width="1" fill="none"></path></g></g><g stroke-linecap="round"><g transform="translate(2299.5151280060745 712.5431281507126) rotate(0 286.22787351089323 -2.868049446953311)"><path d="M0.88 0.24 C96.21 -0.61, 477.49 -5, 572.57 -5.98 M-0.12 -0.68 C95.11 -1.3, 477.12 -4.12, 572.22 -4.75" stroke="#c92a2a" stroke-width="1" fill="none"></path></g><g transform="translate(2299.5151280060745 712.5431281507126) rotate(0 286.22787351089323 -2.868049446953311)"><path d="M544.51 7.61 C552.96 1.72, 563.29 -0.81, 574.21 -3.36 M544.49 5.41 C549.97 3.04, 557.14 1.66, 572.94 -4.54" stroke="#c92a2a" stroke-width="1" fill="none"></path></g><g transform="translate(2299.5151280060745 712.5431281507126) rotate(0 286.22787351089323 -2.868049446953311)"><path d="M544.36 -12.91 C552.72 -11.67, 563.1 -7.07, 574.21 -3.36 M544.34 -15.11 C549.69 -13, 556.89 -9.91, 572.94 -4.54" stroke="#c92a2a" stroke-width="1" fill="none"></path></g></g><g stroke-linecap="round"><g transform="translate(2310.1818062984853 1019.6769456536198) rotate(0 285.96972178263786 -137.0714641133274)"><path d="M0.37 0.61 C95.81 -45.25, 477.27 -229.02, 572.84 -274.76 M-0.9 -0.11 C94.33 -45.89, 475.94 -228.34, 571.63 -273.73" stroke="#c92a2a" stroke-width="1" fill="none"></path></g><g transform="translate(2310.1818062984853 1019.6769456536198) rotate(0 285.96972178263786 -137.0714641133274)"><path d="M551.62 -253.17 C555.49 -258.36, 563.72 -266.13, 569.98 -275.33 M550.52 -252.43 C556.39 -260.13, 564.34 -265.27, 570.68 -274.52" stroke="#c92a2a" stroke-width="1" fill="none"></path></g><g transform="translate(2310.1818062984853 1019.6769456536198) rotate(0 285.96972178263786 -137.0714641133274)"><path d="M542.79 -271.69 C549.5 -271.1, 560.5 -273.06, 569.98 -275.33 M541.69 -270.96 C550.64 -272.46, 561.5 -271.5, 570.68 -274.52" stroke="#c92a2a" stroke-width="1" fill="none"></path></g></g><g transform="translate(1269.1625715025457 601.3697563155238) rotate(0 43.5 12.5)"><text x="43.5" y="18" font-family="Virgil, Segoe UI Emoji" font-size="20px" fill="#c92a2a" text-anchor="middle" style="white-space: pre;" direction="ltr">picture</text></g><g transform="translate(1293.4681103529097 677.3620366138274) rotate(0 40.140780989807126 11.525570779251545)"><text x="40.14078098980711" y="16.051141558503087" font-family="Virgil, Segoe UI Emoji" font-size="18.07676428689263px" fill="#000000" text-anchor="middle" style="white-space: pre;" direction="ltr"></text></g><g transform="translate(1263.9347404325017 713.5230840614568) rotate(0 49 12.5)"><text x="49" y="18" font-family="Virgil, Segoe UI Emoji" font-size="20px" fill="#c92a2a" text-anchor="middle" style="white-space: pre;" direction="ltr">audio</text></g><g transform="translate(2571.277735602831 504.38918416438315) rotate(359.4034007336396 149.5 17.5)"><text x="0" y="25" font-family="Virgil, Segoe UI Emoji" font-size="28px" fill="#000000" text-anchor="start" style="white-space: pre;" direction="ltr">if all_warnings  &gt; cnt</text></g><g stroke-linecap="round"><g transform="translate(2067.7274639282386 260.05019427950003) rotate(0 -651.1710885402513 131.04465140337845)"><path d="M0.63 1.05 C-113.12 -9.63, -464.91 -121.58, -682.15 -64.57 C-899.39 -7.56, -1199.02 275.04, -1302.79 343.13 M-0.5 0.55 C-114.35 -10.4, -465.47 -123.45, -682.55 -66.15 C-899.63 -8.85, -1199.23 276.38, -1302.97 344.36" stroke="#343a40" stroke-width="2" fill="none"></path></g><g transform="translate(2067.7274639282386 260.05019427950003) rotate(0 -651.1710885402513 131.04465140337845)"><path d="M-1285.26 320.71 C-1290.66 329.27, -1297.91 334.34, -1301.88 345.97 M-1287.25 319.4 C-1293.38 328.16, -1299.08 337.49, -1303.65 345.19" stroke="#343a40" stroke-width="2" fill="none"></path></g><g transform="translate(2067.7274639282386 260.05019427950003) rotate(0 -651.1710885402513 131.04465140337845)"><path d="M-1272.67 336.91 C-1282.15 340.2, -1293.56 339.93, -1301.88 345.97 M-1274.66 335.6 C-1285.42 338.37, -1295.77 341.72, -1303.65 345.19" stroke="#343a40" stroke-width="2" fill="none"></path></g></g><g transform="translate(1371.279998874004 23.49841993866744) rotate(0 235 70.5)"><text x="0" y="25.25" font-family="Virgil, Segoe UI Emoji" font-size="28px" fill="#000000" text-anchor="start" style="white-space: pre;" direction="ltr">if all_warnings &lt;= cnt;</text><text x="0" y="60.5" font-family="Virgil, Segoe UI Emoji" font-size="28px" fill="#000000" text-anchor="start" style="white-space: pre;" direction="ltr"></text><text x="0" y="95.75" font-family="Virgil, Segoe UI Emoji" font-size="28px" fill="#000000" text-anchor="start" style="white-space: pre;" direction="ltr">threshold set by </text><text x="0" y="131" font-family="Virgil, Segoe UI Emoji" font-size="28px" fill="#000000" text-anchor="start" style="white-space: pre;" direction="ltr">the organization, default cnt = 2</text></g><g stroke-linecap="round" transform="translate(2031.456604921389 335.73125555492146) rotate(0 65.39999389648438 29)"><path d="M0 0 C0 0, 0 0, 0 0 M0 0 C0 0, 0 0, 0 0 M-1.1 11.23 C3.51 9.1, 8.53 3.99, 10.54 1.14 M0.48 12.5 C2.65 8.99, 4.84 7.55, 10.27 -0.39 M-0.02 25.61 C8.98 14.16, 15.3 6.07, 22.86 1.58 M1.14 23.23 C8.29 16, 16.83 5.71, 21.18 -0.57 M-0.85 36.46 C10.98 25.78, 24.29 9.08, 33.5 1.81 M-0.43 37.29 C9.86 25.23, 20.97 12.5, 32.76 -0.58 M1.7 50.41 C13.73 36.05, 23.61 21.52, 41.83 -1.34 M-0.44 48.75 C9.49 37.81, 19.87 27.1, 41.65 -1 M0.53 60.36 C17.12 37.99, 35.97 20.23, 51.64 1.43 M1.06 58.82 C17.29 41.52, 32.76 24.76, 53.24 0.4 M12.21 59.69 C23.88 44.53, 36.11 31.95, 63.72 -0.26 M11.89 59.1 C28.13 41.55, 44.06 25.05, 63.32 -1.15 M21.19 57.7 C41.42 37.86, 57.6 17.53, 76.27 -1 M23.21 59.82 C39.7 38.61, 56.14 19.07, 73.81 -1.24 M34.57 60.93 C50.11 42.05, 63.7 20.53, 85.49 -0.08 M33.52 59.85 C48.27 41.57, 63.31 24.68, 84.54 0.07 M45.41 59.21 C58.68 43, 74.19 22.16, 94 -2.01 M43.2 59.54 C55.92 46.29, 67.22 33.74, 94.99 0.42 M53.21 61.17 C76.65 33.37, 97.45 11.47, 107.39 -0.98 M54.31 58.98 C67.38 45.28, 78.56 30.15, 106.05 -0.58 M64.42 57.73 C79.97 40.99, 100.18 19.37, 118.02 -0.64 M64.27 60.22 C79.4 42.48, 95.24 25.31, 117.07 -0.32 M76.95 57.62 C90.83 42.99, 104.33 29.61, 128.21 -1.6 M75.68 59.55 C94.74 37.16, 114.68 13.75, 126.29 0.01 M84.68 58.85 C106.99 39.08, 123.8 16.22, 136.11 1.59 M86.02 59.72 C97.85 46.99, 108.67 34.22, 134.01 3.23 M97.92 60.24 C107.57 47.66, 120.75 33.72, 134.88 16.98 M97.43 58.22 C107.34 46.96, 118.25 34.34, 134.95 15.4 M107.93 60.9 C113.83 50.99, 121.86 39.87, 135.57 30.03 M108.44 59.52 C116.42 49.99, 124.46 38.73, 134.44 27.48 M119.44 59.75 C122.04 55.23, 126.64 50.11, 133.3 40.32 M117.73 59.31 C122.28 52.66, 127.18 47.37, 133.81 40.69 M128.09 59.01 C130.71 56.61, 131.96 54.64, 135.18 52.35 M129.33 58.9 C130.99 56.9, 132.98 54.06, 134.46 52.24" stroke="#ced4da" stroke-width="1" fill="none"></path><path d="M0.59 0.62 C38.56 -1.19, 73.77 -0.96, 131.8 -1.45 M0.08 0.44 C32.37 -1.34, 64.96 0.2, 130.32 -0.51 M129.35 -1.59 C132.2 21.08, 131.15 42.84, 131.55 57.17 M129.88 0.45 C130.43 20.35, 131.02 39.56, 130.64 57.77 M130.12 56.93 C86.79 57.32, 38.38 59.67, -0.71 56.74 M131.61 58.19 C82.36 59.05, 35.47 58.76, -0.46 58.72 M-1.08 58.55 C-1.85 35, 1.48 14.86, 1.22 -1.71 M-0.58 58.5 C0.93 38.79, 0.32 20.97, 0.35 -0.02" stroke="#e67700" stroke-width="2" fill="none"></path></g><g transform="translate(2047.2564553852562 353.9312677619527) rotate(0 47.5 12.5)"><text x="0" y="18" font-family="Virgil, Segoe UI Emoji" font-size="20px" fill="#e67700" text-anchor="start" style="white-space: pre;" direction="ltr">WARNING</text></g><g transform="translate(2113.8582876032337 244.37134329013702) rotate(0 143 12.5)"><text x="0" y="18" font-family="Virgil, Segoe UI Emoji" font-size="20px" fill="#000000" text-anchor="start" style="white-space: pre;" direction="ltr">msg: multiple people detected</text></g><g transform="translate(2129.5918691462025 563.8380409830081) rotate(0 143 12.5)"><text x="0" y="18" font-family="Virgil, Segoe UI Emoji" font-size="20px" fill="#000000" text-anchor="start" style="white-space: pre;" direction="ltr">msg: face was seen covered </text></g><g stroke-linecap="round" transform="translate(2038.7455046609725 645.4201263028056) rotate(0 65.39999389648438 29)"><path d="M0 0 C0 0, 0 0, 0 0 M0 0 C0 0, 0 0, 0 0 M-0.4 10.68 C3.28 9.05, 3.84 6.61, 9.22 -0.08 M-0.49 12.39 C3.67 8.78, 6.21 4.43, 11.43 -0.27 M0.65 22.65 C5.61 18.46, 9.71 12.91, 21.86 0.54 M-0.23 23.56 C6.06 18.02, 11.88 12.5, 20.87 -0.35 M0.15 35.62 C12.55 21.39, 25.49 9.74, 32.25 1.86 M0.32 36.65 C9.09 27.43, 17.47 16.9, 32.83 -0.96 M0.24 48.17 C15.18 31.36, 32.05 13.19, 43.55 0.98 M0.5 49.54 C9.54 35.89, 20.54 24.04, 42.27 -1.06 M1.98 57.77 C14.41 42.65, 26.88 28.95, 51.27 0.27 M2.31 59.02 C17.28 40.01, 34.28 20.45, 52.88 -1.07 M13.61 58.88 C30.9 40.91, 45.69 21.73, 63.34 -1.06 M11.85 60.03 C30.33 38.6, 47.58 19.64, 62.98 -0.71 M22.77 58.39 C35.91 45.63, 46.3 30.39, 72.66 0.48 M22.83 59.89 C35.48 45.99, 47.6 31.68, 75.29 -0.69 M31.21 60.91 C53.55 36.23, 73.28 14.42, 85.58 0.16 M32.52 60.3 C51.8 38.37, 70.68 17.17, 84.67 -0.51 M42.17 58.84 C61.58 40.48, 77.76 19.43, 94.4 0.57 M44.36 60.2 C63.88 38.16, 81.43 15.11, 95.89 -0.19 M52.83 59.9 C74.89 36.11, 94.53 12.86, 105.87 -0.91 M53.68 60 C71.31 38.9, 89.32 18.67, 105.38 -0.03 M66.81 58.59 C77.84 44.64, 90.8 31.04, 117.05 0.14 M65.46 59.87 C75.79 46.83, 85.84 35.16, 116.28 0.41 M74.69 59.7 C96.08 38.43, 115.36 15.57, 126.41 -0.3 M76.07 59.9 C91.54 41.24, 105.82 24.66, 126.87 -0.47 M86.5 57.84 C97.11 47.26, 109.93 34.03, 135.77 4.3 M87.04 58.45 C97.6 46.95, 107.66 33.76, 135.74 3.48 M96.25 60.89 C109.17 44.66, 117.12 33.88, 133.47 15.55 M96.79 58.34 C110.92 44.1, 122.79 30.17, 134.14 15.42 M106.37 57.56 C115 50.79, 120.2 44.48, 133.23 29 M108.39 59.11 C114.26 50.38, 122.82 42.83, 134.2 29.14 M116.25 60.82 C123.59 55.28, 127.1 47.04, 136.34 38.81 M117.32 59.31 C125.15 52.25, 131.16 44.51, 134.28 40.43 M129.72 59.23 C130.77 57.26, 132.51 54.88, 135.37 52.45 M129.02 58.87 C130.28 57.23, 132.79 55.15, 134.74 52.51" stroke="#ced4da" stroke-width="1" fill="none"></path><path d="M-0.1 1.58 C25.44 -0.94, 54.12 1.39, 132.02 -1.59 M0.84 0.65 C50.11 -0.42, 103.05 -1.44, 130.75 0.34 M129.38 -1.23 C130.3 19.38, 129.05 36, 129.12 57.67 M131.14 0.6 C130.46 20.24, 131.14 41.1, 130.46 58.55 M132.55 56.2 C91.23 56.97, 51.33 56.48, 0.92 59.1 M130.46 57.92 C94.92 59.15, 57.07 59.47, 0.44 57.09 M0.59 57.8 C-0.16 44.41, 1.26 33.22, 0.3 1.8 M-0.51 58.52 C0.61 44.74, -1.14 31.55, 0.82 0.42" stroke="#e67700" stroke-width="2" fill="none"></path></g><g transform="translate(2054.5453551248397 663.6201385098368) rotate(0 47.5 12.5)"><text x="0" y="18" font-family="Virgil, Segoe UI Emoji" font-size="20px" fill="#e67700" text-anchor="start" style="white-space: pre;" direction="ltr">WARNING</text></g><g stroke-linecap="round" transform="translate(2052.475194544083 719.7773322613571) rotate(0 52.796989468376296 25)"><path d="M0 0 C0 0, 0 0, 0 0 M0 0 C0 0, 0 0, 0 0 M-0.61 5.96 C1.46 3.84, 3.21 1.79, 4.27 0.59 M-0.37 6.75 C1.4 4.64, 2.89 3.02, 4.82 0.49 M1.12 13.22 C1.58 10.33, 5.53 5.04, 9.83 -1.09 M-0.26 12.69 C4.07 7.48, 7.47 2.34, 10.92 -0.51 M0.89 18.34 C5.03 13.73, 8.45 12.33, 14.73 2.07 M0.65 18.51 C4.18 13.47, 9.18 8.83, 15.83 0.89 M2.16 23.75 C6.6 18.53, 12.08 11.16, 20.8 0.8 M0.03 24.27 C8.97 14.56, 16.57 5.48, 21.7 0.59 M1.77 31.51 C6.87 22.45, 9.69 18.53, 26.49 1.78 M0.32 30.93 C7.04 22.69, 14.03 13.34, 25.96 0.77 M1.2 35.4 C12.34 21.83, 25.32 7.69, 32.52 -1.27 M-0.58 36.97 C7.97 27.18, 16.8 17.37, 31.78 -1.04 M1.38 43.02 C11.61 28.4, 24.27 15.44, 36.95 1.66 M0.38 43.09 C10.17 32.64, 19.04 20.82, 36.56 0.18 M1.26 49.53 C7.77 37.8, 17.91 28.26, 40.89 -1.61 M-0.79 48.78 C12.37 35.43, 24.44 20.86, 43.01 -0.84 M0.79 53.59 C21.27 30.29, 38.64 12.02, 47.82 0.03 M3.12 52.91 C16.18 34.67, 31.8 17.95, 47.6 0.62 M6.28 53.18 C17.22 39.97, 28.82 27.74, 53.26 -1.5 M7.11 52.39 C19.34 38.53, 31.62 24.33, 53.57 -0.52 M12.89 51.37 C26.27 37.25, 42.02 18.1, 60.09 0 M13.74 52.62 C30.61 32.7, 46.39 14.06, 57.44 1.19 M18.98 52.48 C32.95 36.92, 45.51 21.74, 64.23 -1.47 M18.73 52.45 C33.83 34.06, 48.92 15.4, 64.01 -0.14 M22.76 50.65 C42.12 33.51, 59.62 11.7, 69.97 1.39 M22.78 51.47 C36.05 38.15, 49.59 24.02, 68.82 0.63 M27.98 51.29 C46.17 31.82, 61.44 13.59, 75.64 -1.31 M28.67 52.23 C42.56 36.48, 56.43 19.81, 75.23 -0.17 M35.24 52.64 C51.18 34.49, 67.23 14.49, 80.93 0.81 M33.66 52.51 C45.8 38.73, 55.08 26.65, 78.85 -0.7 M39.73 51.2 C55.36 33.92, 74.47 11.38, 84.59 -0.06 M40.55 51.57 C48.58 42.31, 58.24 31.39, 84.55 0.58 M46.44 51.3 C63.01 32.5, 79.74 10.24, 91.71 -0.41 M44.16 52.4 C54.75 40.47, 65.4 27.49, 91 -0.8 M51.96 50.55 C67.1 31.08, 84.25 15.85, 95.44 0.01 M50.34 51.96 C63.53 35.4, 78.35 18.83, 95.62 -1.1 M55.7 53.35 C69.2 34.06, 85.59 15.77, 100.27 -0.19 M54.46 51.45 C65.22 40.28, 74.85 28.88, 101.13 -0.08 M61.65 52.42 C75.85 33.14, 91.79 16.06, 107.11 2.11 M60.4 52.52 C73.29 36.8, 86 23.43, 105.85 -0.03 M65.62 50.26 C75.18 41.65, 88.42 29.2, 106.58 6.37 M65.09 51.58 C76.55 39.88, 88.58 27.2, 106.24 6.75 M72.35 53.42 C80.9 40.76, 89.97 34.16, 105.27 12.02 M70.82 52.74 C79.56 42.06, 89.71 31.97, 106.45 12.4 M78.04 50.24 C83.96 42.89, 92.62 34.03, 106.46 19.59 M77 52.35 C86.49 41.41, 94.36 32.6, 106.26 19.3 M80.86 52.62 C87.94 43.98, 95.75 32.77, 105.87 26.39 M82 51.47 C87.79 45.54, 92.23 40.4, 106.07 24.55 M86.07 50.25 C92.8 45.94, 95.26 40.84, 106.2 32.28 M87.46 52.91 C92.09 45.12, 99.31 39.71, 104.74 30.51 M93.24 52.12 C95.82 47.1, 103.31 40.27, 106.25 37.92 M92.78 51.45 C95.93 49.13, 98.61 44.14, 105.88 35.72 M97.99 52 C100.74 49.97, 100.83 49.48, 104.78 42.54 M98.05 52.04 C100.1 49.86, 102.76 46.19, 106.15 43.12 M103.01 52.68 C103.95 51.61, 105.12 50.44, 105.69 49.23 M102.92 52.34 C103.6 51.46, 104.18 50.95, 105.37 49.38" stroke="#82c91e" stroke-width="0.5" fill="none"></path><path d="M-1.36 0.11 C39.84 -0.54, 81.19 -2.02, 106.07 -1.64 M-0.85 0.49 C24.38 -0.25, 49.16 -0.53, 105.57 0.2 M106.47 0.24 C106.94 9.93, 105.74 25.45, 105.01 49.32 M104.88 -0.01 C105.51 18.69, 105.95 39.19, 105.9 49.57 M104.55 50.41 C82.63 50.73, 60.59 48.69, -0.56 51.52 M104.96 50.25 C79.01 50.9, 54.39 50.39, 0.98 49.79 M-0.46 50.6 C1.66 35.75, 1.21 24.49, -1.71 1.12 M-0.38 49.95 C-0.33 38.12, -0.68 25.19, 0.56 -0.46" stroke="#000000" stroke-width="1" fill="none"></path></g><g transform="translate(2057.475194544083 724.7773322613571) rotate(0 47.796989468376296 20)"><text x="47.796989468376296" y="15" font-family="Virgil, Segoe UI Emoji" font-size="16px" fill="#000000" text-anchor="middle" style="white-space: pre;" direction="ltr">Timer of 10</text><text x="47.796989468376296" y="35" font-family="Virgil, Segoe UI Emoji" font-size="16px" fill="#000000" text-anchor="middle" style="white-space: pre;" direction="ltr">secs.</text></g><g transform="translate(2148.525137375369 839.8381579670577) rotate(0 120.5 12.5)"><text x="0" y="18" font-family="Virgil, Segoe UI Emoji" font-size="20px" fill="#000000" text-anchor="start" style="white-space: pre;" direction="ltr">msg: voice was detected</text></g><g stroke-linecap="round" transform="translate(2045.8566293354515 920.6201232510477) rotate(0 65.39999389648438 29)"><path d="M0 0 C0 0, 0 0, 0 0 M0 0 C0 0, 0 0, 0 0 M1.46 10.79 C4.46 7.95, 5.45 3.23, 9.98 1.27 M0.67 11.41 C4.47 7.23, 7.04 3.95, 10.98 -0.41 M0.13 23.5 C7.13 20.09, 9.51 10.34, 22.9 0.44 M-0.02 24.22 C7.16 15.89, 13.9 8.01, 21.29 -0.96 M0.86 36.68 C8.45 25.34, 19.11 17.07, 33.42 -1.02 M-0.86 36.69 C11.09 23.64, 23.33 9.53, 31.34 0.48 M-0.54 47.19 C11.95 36.24, 22.37 23.03, 41.13 1.59 M0.42 48.08 C13.93 34.33, 26.27 18.39, 43.14 0.04 M1.24 59.79 C14.39 44.32, 26.71 32.31, 52.72 -1.04 M0.95 60.28 C14.3 45.46, 25.61 31.44, 54 -0.11 M13.63 61.21 C24.37 44.8, 35.23 29.78, 62.37 -0.45 M12.48 58.85 C30.2 37.89, 49.05 16.54, 64.37 0.43 M22.49 59.63 C37.3 44.28, 52.78 27.88, 76.18 1.13 M22.86 59.2 C42.44 37.32, 60.76 14.28, 73.63 0.56 M34.82 57.94 C51.89 37.79, 71.5 15.67, 84.73 -1.72 M34 58.66 C46.35 45.77, 57.27 31.82, 85.78 -0.11 M42.04 59.83 C59.4 40.44, 78.74 21.39, 95.54 -2.16 M44.48 59.27 C55.48 45.5, 67.32 32.07, 95.23 -1 M52.56 57.28 C73.83 40.11, 88.93 18.74, 105.56 -1.52 M55.26 60.06 C65.64 45.34, 77.7 32.25, 106.53 -0.29 M64.23 58.09 C82.83 36.31, 101.99 15.37, 117.09 -1.08 M65.48 59.29 C86.21 36.02, 105.09 12.27, 115.49 0.06 M76.84 57.32 C85.35 48.39, 95 33.37, 128.8 -1.6 M76.14 58.67 C96.45 37.05, 116.85 12.6, 127.51 -0.44 M84.65 60.87 C97.47 47.4, 107.52 37.67, 133.76 3.73 M85.91 59.67 C97.33 45.24, 109.9 34.08, 134.83 2.98 M96.87 60.9 C110.12 45.64, 124.03 27.26, 134.49 13.81 M96.86 59.72 C103.49 50.14, 112.74 40.5, 134.84 15.59 M106.16 59.39 C115.67 49.72, 121.8 41.6, 133.96 26.48 M108.19 58.48 C114.72 51.49, 122.25 42.95, 134.31 28.76 M117.13 59.61 C122.06 54.67, 128.02 50.54, 133.66 39.16 M118.02 58.08 C121.98 54.99, 125.33 50.06, 134.74 39.43 M129.77 58.4 C130.52 56.9, 132.27 54.5, 134.47 52.07 M128.99 59.19 C131.11 56.73, 132.91 54.57, 134.47 52.02" stroke="#ced4da" stroke-width="1" fill="none"></path><path d="M0.89 0.31 C34.79 -1.67, 71.41 -0.17, 131.46 1.26 M0.76 -0.7 C30.38 -0.8, 60.58 0.16, 131.01 -0.15 M132.44 0.08 C130.27 16.98, 129.57 36.28, 130.72 57.93 M130.7 -0.76 C129.67 17.71, 131.15 36.37, 131.75 57.31 M132.66 59.16 C80.89 58.23, 29.05 58.97, 0.64 58.36 M131.79 58.5 C90.24 59.16, 48.3 59.12, -0.32 58.55 M-1.05 58.76 C-1.35 43.21, 0.65 26.32, -0.69 -0.06 M0.89 57.13 C0.33 43.9, -1.07 28.72, -0.45 -0.36" stroke="#e67700" stroke-width="2" fill="none"></path></g><g transform="translate(2061.6564797993187 938.820135458079) rotate(0 47.5 12.5)"><text x="0" y="18" font-family="Virgil, Segoe UI Emoji" font-size="20px" fill="#e67700" text-anchor="start" style="white-space: pre;" direction="ltr">WARNING</text></g><g stroke-linecap="round" transform="translate(2059.6752067511143 998.9773444683883) rotate(0 52.796989468376296 25)"><path d="M0 0 C0 0, 0 0, 0 0 M0 0 C0 0, 0 0, 0 0 M-0.18 5.83 C1.01 5.71, 2.77 3.45, 4.94 0.3 M-0.21 6.67 C1.17 4.81, 2.74 3.53, 4.74 0.55 M-1.07 13.34 C1.98 9.31, 4.7 7.12, 9.53 -1.54 M0.69 11.89 C3.09 7.75, 6.42 5.01, 10.05 -0.16 M0.72 17.14 C7.27 9.81, 12.36 6.37, 16.64 1.34 M0.83 19.38 C4.17 13.42, 10.31 6.88, 16.32 0.28 M2.18 23.63 C6.04 19.73, 9.03 11.03, 19.58 0.88 M1.02 24.28 C5.03 18.07, 10.85 11.86, 20.35 -0.32 M1.79 32.19 C8.01 22, 15.66 11.75, 25.94 1.93 M0.09 31.46 C10.06 19, 19.94 7.05, 26.01 -0.07 M-1.74 34.89 C13.06 23.28, 26.48 8.51, 32.64 1.48 M0.58 37.01 C9.31 25.93, 18.2 15.42, 31.6 -0.34 M0.75 42.61 C7.87 33.96, 18.1 23.57, 36.97 1.84 M0.69 42.74 C11.89 29.54, 22.04 15.22, 36.18 0.51 M-0.6 50.78 C7.52 38.08, 18.98 24.81, 42.26 0.09 M0.06 48.74 C10.37 37.85, 17.96 27.62, 42.58 -0.69 M0.42 51.36 C18.57 32.5, 31.93 16.94, 49.21 1.63 M2.04 52.01 C16.67 37.15, 29.15 22.26, 47.92 0.39 M7.31 52.59 C23.07 34.6, 35 18.86, 53.55 1.66 M8.28 51.05 C21.67 35.82, 35.49 22.1, 52.59 -0.21 M11.45 52.84 C24.9 38.68, 35.77 23.97, 57.38 -1.34 M12.48 52.38 C26.25 36.04, 42.35 18.3, 58.73 -0.46 M18.44 52.7 C31.53 37.92, 40.72 25.57, 62.86 -0.08 M17.98 51.46 C37.68 30.78, 53.78 10.92, 63.29 -0.1 M24.68 51.58 C40.03 34.55, 56.69 15.65, 67.47 -0.98 M23.66 51.98 C39.13 35.61, 54.73 17.18, 68.47 -0.41 M27.15 53.2 C41.56 35.35, 57.24 20.08, 73.77 1.33 M28.9 52.1 C44.37 35.36, 59.95 17.67, 74.74 0.07 M34.68 51.06 C50.56 33.84, 62.82 16.49, 80.68 1.54 M34.11 52.72 C45.08 40.5, 56.31 26.93, 79.35 -0.23 M41.66 49.95 C52.98 32.62, 67.78 15.51, 85.15 1.11 M39.75 51.7 C53.38 34.2, 68.61 17.72, 85.34 0.35 M43.32 51.48 C56.47 37.88, 67.45 23.83, 89.49 1.82 M44.77 52.15 C58.46 36.27, 72.12 19.61, 90 0.94 M49.45 51.53 C59.78 37.69, 71.46 25.28, 95.08 -0.78 M49.65 52.63 C63.85 37.51, 75.16 22.42, 95.9 0.4 M55.68 53.81 C65.81 36.83, 81.64 21.89, 101.63 0.19 M54.92 51.44 C72.16 32.86, 89.92 12.47, 101.39 -0.42 M61.23 51.28 C71.92 39.29, 81.97 27.36, 104.26 1.13 M60.09 50.87 C76.08 34.58, 89.26 17.94, 104.93 0.29 M64.12 51.76 C81.84 36.96, 94.42 17.65, 106.81 7.78 M66.23 51.41 C75.24 42.64, 82.77 32.44, 105.63 5.86 M70.32 52.05 C80.88 40.91, 89.16 33.26, 104.1 10.87 M70.26 52.79 C82.67 39.37, 95.41 24.66, 104.78 11.51 M76.24 51.8 C87.07 39.26, 96.91 30.74, 106.62 19.19 M76.75 52.46 C82.62 44.55, 88.37 38.27, 105.8 18.24 M83.27 51.17 C88.15 43.12, 96.95 34.84, 104.29 23.34 M81.71 52.11 C90.01 41.42, 98.8 31.68, 105.23 25.28 M86.88 53.14 C92.57 45.35, 95.75 44.19, 105.07 29.46 M86.9 52.65 C91.94 46.6, 97.21 42.65, 106.57 30.56 M91.87 52.98 C97.25 44.65, 101.79 40.54, 107.93 37.49 M92.39 52.46 C96.51 46.34, 102.56 40.86, 106.57 35.77 M98.04 51.85 C101.33 50.02, 103.45 45.78, 106.05 42.78 M97.65 51.78 C100.12 50.12, 101.88 48.45, 105.77 42.7 M103.09 52.64 C103.44 51.84, 104.31 50.53, 105.36 49.42 M102.97 52.34 C103.65 51.12, 104.53 50.05, 105.38 49.37" stroke="#82c91e" stroke-width="0.5" fill="none"></path><path d="M-0.1 1.97 C30.87 -1.55, 64.37 -1.49, 103.7 1.44 M0.02 -0.15 C37.8 0.75, 76.13 -0.13, 104.74 -0.3 M107.27 0.98 C107.39 11.86, 105.65 23.14, 107.09 50.3 M104.7 -0.11 C106.09 13.88, 106.03 29.05, 106.51 49.28 M104.18 49.8 C83.55 51.95, 56.12 51.65, 0.23 50.7 M105.22 50.81 C73.82 49.42, 41.79 49.92, 0.29 50.31 M1.52 51.67 C1.9 35.49, 0.82 19.54, -0.72 -0.94 M0.95 50.38 C0.26 36.65, 0 21.66, -0.55 0.08" stroke="#000000" stroke-width="1" fill="none"></path></g><g transform="translate(2064.6752067511143 1003.9773444683883) rotate(0 47.796989468376296 20)"><text x="47.796989468376296" y="15" font-family="Virgil, Segoe UI Emoji" font-size="16px" fill="#000000" text-anchor="middle" style="white-space: pre;" direction="ltr">Timer of 10</text><text x="47.796989468376296" y="35" font-family="Virgil, Segoe UI Emoji" font-size="16px" fill="#000000" text-anchor="middle" style="white-space: pre;" direction="ltr">secs.</text></g><g transform="translate(3098.9252635146922 545.1713539712894) rotate(0 150 12.5)"><text x="0" y="18" font-family="Virgil, Segoe UI Emoji" font-size="20px" fill="#000000" text-anchor="start" style="white-space: pre;" direction="ltr">msg: please contact the admin</text></g><g stroke-linecap="round"><g transform="translate(575.7356473621396 800.2391327231226) rotate(0 -1.3901587694883801 131.76600017077755)"><path d="M0.93 -0.28 C0.42 43.96, -3.04 220.88, -3.71 265 M-0.04 -1.47 C-0.1 42.49, -0.73 219.43, -1.37 263.41" stroke="#000000" stroke-width="1" fill="none"></path></g><g transform="translate(575.7356473621396 800.2391327231226) rotate(0 -1.3901587694883801 131.76600017077755)"><path d="M-11.86 233.95 C-7.38 241.87, -5.8 247.91, 0.35 265.36 M-11.83 235.31 C-7.5 243.69, -5.05 254.09, -1.62 262.75" stroke="#000000" stroke-width="1" fill="none"></path></g><g transform="translate(575.7356473621396 800.2391327231226) rotate(0 -1.3901587694883801 131.76600017077755)"><path d="M8.66 234.12 C8.13 242.16, 4.68 248.15, 0.35 265.36 M8.69 235.48 C6.41 243.98, 2.26 254.33, -1.62 262.75" stroke="#000000" stroke-width="1" fill="none"></path></g></g><g transform="translate(468.1096331620049 903.3078957314463) rotate(0 47 25)"><text x="0" y="18" font-family="Virgil, Segoe UI Emoji" font-size="20px" fill="#000000" text-anchor="start" style="white-space: pre;" direction="ltr">check if </text><text x="0" y="43" font-family="Virgil, Segoe UI Emoji" font-size="20px" fill="#000000" text-anchor="start" style="white-space: pre;" direction="ltr">mic is off</text></g><g stroke-linecap="round"><g transform="translate(373.6144316784146 1233.9008967228556) rotate(0 -176.94070043515808 -291.4652165318865)"><path d="M0.45 0.06 C-53.67 -7.41, -272.05 36.77, -325.27 -44.23 C-378.48 -125.23, -374.67 -395.19, -318.83 -485.94 C-263 -576.68, -44.84 -571.85, 9.73 -588.72 M-0.78 -0.96 C-55.03 -8.3, -273.26 38.35, -326.36 -42.84 C-379.46 -124.03, -374.93 -397.24, -319.38 -488.1 C-263.83 -578.95, -47.49 -571.63, 6.93 -588" stroke="#000000" stroke-width="1" fill="none"></path></g><g transform="translate(373.6144316784146 1233.9008967228556) rotate(0 -176.94070043515808 -291.4652165318865)"><path d="M-19.49 -574.43 C-13.37 -576.95, -5.56 -579.27, 5.73 -587.9 M-19.34 -573.78 C-10.81 -579.68, 0.1 -585.26, 7.14 -588.8" stroke="#000000" stroke-width="1" fill="none"></path></g><g transform="translate(373.6144316784146 1233.9008967228556) rotate(0 -176.94070043515808 -291.4652165318865)"><path d="M-22.31 -594.75 C-15.37 -592.11, -6.84 -589.25, 5.73 -587.9 M-22.15 -594.1 C-12.43 -592.48, -0.48 -590.51, 7.14 -588.8" stroke="#000000" stroke-width="1" fill="none"></path></g></g><g stroke-linecap="round" transform="translate(515.2360971511271 135.591776529948) rotate(0 70 5.5999908447265625)"><path d="M0.23 1.78 C50.99 -0.22, 100.06 2.19, 139.25 -0.82 M-0.39 0.87 C41.17 1.9, 82.08 0.32, 139.7 -0.86 M140.49 -0.71 C140.93 4.79, 140.11 9, 139.82 11.7 M139.6 0.3 C139.49 4.38, 139.53 8.92, 140.16 11.36 M138.32 10.01 C104.76 10.88, 72.66 9.56, 1.37 10.13 M140.62 11.74 C99.55 12.21, 59.81 11.11, 0.1 11.48 M0.07 10.43 C0.84 9.58, -0.19 7.02, -0.58 0.2 M-0.4 11.68 C-0.12 7.93, 0.22 3.83, -0.05 0.01" stroke="#000000" stroke-width="1" fill="none"></path></g><g stroke-linecap="round" transform="translate(513.0360544265177 174.19173685709643) rotate(0 70 5.5999908447265625)"><path d="M-1.68 -1.19 C32.93 0.5, 69 -0.83, 141.37 -1.07 M0.62 0.54 C39.38 0.8, 79.49 -0.29, 140.1 0.28 M140.07 -0.77 C140.9 3.27, 139.87 5.59, 139.42 11.4 M139.6 0.48 C139.7 3.61, 140.05 6.41, 139.95 11.21 M138.2 9.85 C108.5 11.33, 76.26 11.47, 1.28 10.49 M140.52 11.74 C90.78 12.58, 42.66 11.17, 0.69 11.45 M-1 10.65 C1.01 8.01, 0.48 4.37, -0.75 -0.74 M0.01 11.33 C0.22 6.47, -0.23 2.32, -0.3 -0.37" stroke="#000000" stroke-width="1" fill="none"></path></g><g transform="translate(407.2069884678558 10) rotate(0 179 12.5)"><text x="0" y="18" font-family="Virgil, Segoe UI Emoji" font-size="20px" fill="#000000" text-anchor="start" style="white-space: pre;" direction="ltr">login page (after clicking on the link)</text></g><g transform="translate(436.6144451631551 126.06669862016008) rotate(0 25 12.5)"><text x="0" y="18" font-family="Virgil, Segoe UI Emoji" font-size="20px" fill="#000000" text-anchor="start" style="white-space: pre;" direction="ltr">Email</text></g><g transform="translate(409.6143993867879 166.06673676713274) rotate(0 46.5 12.5)"><text x="0" y="18" font-family="Virgil, Segoe UI Emoji" font-size="20px" fill="#000000" text-anchor="start" style="white-space: pre;" direction="ltr">Password</text></g></svg>