<svg version="1.1" xmlns="http://www.w3.org/2000/svg" viewBox="0 0 2745.9555053710933 780.7141687302368" width="2745.9555053710933" height="780.7141687302368">
  <!-- svg-source:excalidraw -->
  
  <defs>
    <style>
      @font-face {
        font-family: "Virgil";
        src: url("https://excalidraw.com/Virgil.woff2");
      }
      @font-face {
        font-family: "Cascadia";
        src: url("https://excalidraw.com/Cascadia.woff2");
      }
    </style>
  </defs>
  <rect x="0" y="0" width="2745.9555053710933" height="780.7141687302368" fill="#ffffff"></rect><g stroke-linecap="round" transform="translate(642.0000784737726 74.99988301595067) rotate(0 197.99997965494777 120.66665649414074)"><path d="M-0.71 -0.24 C149.4 -0.35, 296.72 0.48, 396.5 0.14 M0.13 0.55 C122.46 0.29, 243.65 0.41, 396.47 0.1 M395.79 1.13 C393.02 58.71, 395.14 114.74, 397.47 240.5 M396.67 -0.36 C394.63 70.39, 394.58 143.12, 396.01 241.54 M396.86 241.66 C275.85 242, 156.51 243.04, 0.98 240.38 M396.51 241.75 C296.13 242.1, 195.9 241.51, 0.21 241.43 M0.05 242.86 C0.06 185.52, 0.26 130.4, 0.16 1.65 M-0.82 241.34 C1.19 146.56, -0.06 51.95, 0.77 0.41" stroke="#000000" stroke-width="1" fill="none"></path></g><g transform="translate(777.0000784737726 10) rotate(0 64 12.5)"><text x="0" y="18" font-family="Virgil, Segoe UI Emoji" font-size="20px" fill="#000000" text-anchor="start" style="white-space: pre;" direction="ltr">Landing Page</text></g><g stroke-linecap="round" transform="translate(10 529.3808557419554) rotate(0 197.999979654948 120.66665649414068)"><path d="M0.97 -0.48 C105.91 2.56, 212.33 2.07, 395.5 -1.07 M0.47 -0.53 C134.89 0.44, 268.58 1.09, 396.08 -0.45 M395.98 0.25 C395.94 85.69, 393.32 173.02, 394.81 240.8 M396.81 0.09 C396.05 49.69, 395.23 99.37, 395.59 240.62 M395.45 241.76 C306.05 238.67, 216.13 240.38, -0.23 241.29 M396.23 241.75 C262.75 240.45, 129.89 240.67, 0.31 240.91 M-0.35 241.02 C1.15 175.81, 1.95 109.58, 0.73 0.46 M-0.03 241.67 C-0.8 192.2, -0.25 141.03, 0.66 -0.55" stroke="#000000" stroke-width="1" fill="none"></path></g><g transform="translate(164.9999564034606 475.99998474121116) rotate(0 49.5 12.5)"><text x="0" y="18" font-family="Virgil, Segoe UI Emoji" font-size="20px" fill="#000000" text-anchor="start" style="white-space: pre;" direction="ltr">User Form</text></g><g stroke-linecap="round" transform="translate(1237.9999796549473 502.0475580124628) rotate(0 197.999979654948 120.66665649414068)"><path d="M-0.12 0.26 C93.77 2.03, 189.24 1.14, 396.65 0.17 M-0.15 0.49 C120.08 -0.83, 240.85 -0.43, 395.89 0.42 M395.7 0.98 C394.45 54.77, 394.57 110.48, 394.92 241.32 M395.59 0.22 C394.79 54.49, 394.27 109.3, 396.09 240.75 M396.05 241.73 C259.93 243.21, 121.32 243.51, 0.96 240.5 M396.27 241.8 C310.85 239.61, 226.83 239.46, 0.24 241.28 M-0.96 241.25 C-1.97 151.06, -2.59 57.43, 0.44 0.52 M0.41 241.59 C-0.22 147.98, -0.34 53.68, -0.47 0.06" stroke="#000000" stroke-width="1" fill="none"></path></g><g transform="translate(1322.3333304268976 448.6666870117185) rotate(0 113 12.5)"><text x="0" y="18" font-family="Virgil, Segoe UI Emoji" font-size="20px" fill="#000000" text-anchor="start" style="white-space: pre;" direction="ltr">Admin - Create a test</text></g><g stroke-linecap="round" transform="translate(1784.3999226888013 497.7808445521762) rotate(0 197.99997965494777 120.66665649414068)"><path d="M0.9 0.97 C154.97 -1.25, 308.25 -2.18, 395.9 -0.11 M0.2 0.37 C103.32 1.67, 205.09 1.69, 395.65 -0.18 M395.07 -1.15 C395.62 72.33, 393.91 142.79, 397.65 242.08 M396.69 -0.41 C398.02 71.23, 397.4 141.42, 396.26 240.59 M395.87 240.98 C283.28 240, 171.87 240.96, 1.11 241.13 M396.39 241.35 C253.14 240.32, 111.2 240.74, 0.53 240.77 M-1.6 240.45 C0.19 189.54, -1.1 141.25, -0.43 1.26 M0.35 240.75 C0.05 161.03, 0.23 81.11, -0.05 0.7" stroke="#000000" stroke-width="1" fill="none"></path></g><g transform="translate(1896.4000316801526 446.40000406901004) rotate(0 83 12.5)"><text x="0" y="18" font-family="Virgil, Segoe UI Emoji" font-size="20px" fill="#000000" text-anchor="start" style="white-space: pre;" direction="ltr">Admin Dashboard</text></g><g stroke-linecap="round"><g transform="translate(791.9355562178584 329.43603442116614) rotate(0 -182.6323642898351 163.003885614276)"><path d="M0.64 1.01 C-9.06 44.13, 2.2 205.17, -58.89 259.04 C-119.98 312.92, -314.98 313.47, -365.9 324.26 M-0.48 0.5 C-10.25 43.77, 0.81 206.33, -59.67 260.5 C-120.15 314.67, -312.69 314.83, -363.38 325.51" stroke="#000000" stroke-width="1" fill="none"></path></g><g transform="translate(791.9355562178584 329.43603442116614) rotate(0 -182.6323642898351 163.003885614276)"><path d="M-334.81 312.72 C-343.18 314.36, -349.6 319.97, -364.36 327.05 M-335.88 312.35 C-346.1 315.98, -354.83 320.84, -362.71 326.22" stroke="#000000" stroke-width="1" fill="none"></path></g><g transform="translate(791.9355562178584 329.43603442116614) rotate(0 -182.6323642898351 163.003885614276)"><path d="M-332.54 333.11 C-341.51 329.87, -348.48 330.58, -364.36 327.05 M-333.61 332.75 C-344.72 329.29, -354.23 327.08, -362.71 326.22" stroke="#000000" stroke-width="1" fill="none"></path></g></g><g stroke-linecap="round"><g transform="translate(891.1355073897334 335.83605883522864) rotate(0 163.7325204718859 145.66547494767235)"><path d="M-0.33 0.51 C7.23 39.74, -10.19 187.77, 44.49 236.09 C99.18 284.42, 280.58 281.43, 327.79 290.46 M1.7 -0.27 C9.15 38.58, -10.85 185.79, 43.39 234.44 C97.63 283.09, 279.68 282.16, 327.13 291.6" stroke="#000000" stroke-width="1" fill="none"></path></g><g transform="translate(891.1355073897334 335.83605883522864) rotate(0 163.7325204718859 145.66547494767235)"><path d="M298.89 298.45 C306.12 297.69, 310.7 295.97, 326.25 292.05 M298.96 299.45 C307.38 297.27, 315.46 293.85, 326.32 292.52" stroke="#000000" stroke-width="1" fill="none"></path></g><g transform="translate(891.1355073897334 335.83605883522864) rotate(0 163.7325204718859 145.66547494767235)"><path d="M300.97 278.04 C307.84 281.92, 311.94 284.85, 326.25 292.05 M301.03 279.03 C308.92 282.91, 316.38 285.54, 326.32 292.52" stroke="#000000" stroke-width="1" fill="none"></path></g></g><g stroke-linecap="round"><g transform="translate(1643.1355073897334 622.48967510169) rotate(0 68.44579187730938 -1.4375355143508841)"><path d="M1.1 -0.97 C23.49 -1.35, 112.08 -1.77, 134.42 -2.34 M0.21 1.14 C22.98 0.44, 114.33 -3.22, 136.68 -4.01" stroke="#000000" stroke-width="1" fill="none"></path></g><g transform="translate(1643.1355073897334 622.48967510169) rotate(0 68.44579187730938 -1.4375355143508841)"><path d="M107.28 5.86 C118.8 3.34, 123.94 0.83, 136.1 -4.52 M109.18 7.43 C118.58 3.4, 127.38 -1.03, 136.42 -4.2" stroke="#000000" stroke-width="1" fill="none"></path></g><g transform="translate(1643.1355073897334 622.48967510169) rotate(0 68.44579187730938 -1.4375355143508841)"><path d="M106.5 -14.64 C118.24 -10.92, 123.62 -7.17, 136.1 -4.52 M108.4 -13.07 C118.05 -10.47, 127.1 -8.26, 136.42 -4.2" stroke="#000000" stroke-width="1" fill="none"></path></g></g><g stroke-linecap="round" transform="translate(702.0308589813008 181.2031526026699) rotate(0 51.50001525878906 18)"><path d="M1.49 -1.89 C40.41 -0.62, 77.84 1.15, 104.72 0.15 M0.56 -0.56 C31.3 0.72, 61.34 1.01, 102.57 -0.51 M102.62 1.34 C104.44 8.21, 101.76 17.11, 102.34 34.91 M102.03 -0.97 C102.6 12.32, 104.13 23.58, 102.04 36.06 M102.98 37.64 C82.9 36.63, 60.88 37.88, -0.92 34.3 M103.18 36.64 C79.86 35.98, 56.55 37.12, 0.84 35.7 M-1.42 34.33 C1.14 24.58, -0.7 9.39, -1.44 1.04 M0.02 35.21 C0.3 22.15, -0.11 7.81, -0.71 -0.19" stroke="#000000" stroke-width="1" fill="none"></path></g><g stroke-linecap="round" transform="translate(852.0308589813008 183.20312208509176) rotate(0 78.5000228881836 19.000015258789062)"><path d="M0.26 -0.64 C32.58 2.24, 69.73 1.05, 156.52 0.61 M-0.86 -0.78 C61.84 1.41, 122.33 0.83, 157.98 0.92 M157.12 -1.37 C155.63 9.94, 156.89 17.84, 159 38.53 M157.52 -0.46 C156.37 14.07, 156.9 30.26, 157.53 38.94 M155.02 37.31 C108.23 37.06, 61.68 40.03, 0.28 38.97 M156.94 37.84 C99.05 39.9, 39.52 39.05, 0.26 37.29 M-0.02 36.61 C0.78 23.63, -0.8 10.02, -0.63 -0.81 M-0.44 37.44 C-0.78 26.98, -0.8 16.99, 0.92 0.46" stroke="#000000" stroke-width="1" fill="none"></path></g><g transform="translate(707.0308589813008 186.2031526026699) rotate(0 46.5 12.5)"><text x="46.5" y="18" font-family="Virgil, Segoe UI Emoji" font-size="20px" fill="#000000" text-anchor="middle" style="white-space: pre;" direction="ltr">create</text></g><g transform="translate(857.0308589813008 189.70313734388083) rotate(0 73.5000228881836 12.5)"><text x="73.5000228881836" y="18" font-family="Virgil, Segoe UI Emoji" font-size="20px" fill="#000000" text-anchor="middle" style="white-space: pre;" direction="ltr">enter test link</text></g><g stroke-linecap="round" transform="translate(101.76337119799291 592.9089859166263) rotate(0 70 5.5999908447265625)"><path d="M-1.2 -1.96 C35.89 -0.83, 72.05 0.4, 138.88 1.04 M0.16 0.12 C43.65 0.23, 88.72 -1.12, 140.22 0.76 M140.59 0.52 C140.9 3, 139.16 5.92, 140.52 10.4 M140.02 0.33 C139.92 1.81, 139.68 4.13, 139.95 11.75 M141.38 9.4 C103.29 12.53, 67.1 9.75, 0.3 11.37 M139.36 11.42 C86.52 9.29, 31.49 8.91, 0.87 10.97 M0.2 10.85 C0.44 6.87, -0.13 1.55, -0.35 0.86 M0.33 10.85 C0.12 7.64, 0.49 3.56, 0.14 0.05" stroke="#000000" stroke-width="1" fill="none"></path></g><g stroke-linecap="round" transform="translate(102.56335899096166 618.5089920201419) rotate(0 70 5.5999908447265625)"><path d="M-0.27 0.47 C54.8 3.08, 109.02 2.41, 140.32 1.4 M-0.56 0.44 C44.34 -1.09, 88.29 0.58, 139.84 0.85 M140.81 -0.19 C139.13 2.3, 140.58 4.71, 138.95 10.57 M139.98 -0.5 C139.75 2.14, 139.95 5.79, 139.76 11.21 M139.17 12.85 C99.99 8.8, 62.56 10.11, 1.77 9.38 M140.88 10.66 C111.99 10.59, 84.45 11.27, 0.94 11.82 M0.51 11.29 C-0.08 7.69, -0.37 6.66, 0.31 0.39 M0.16 11.3 C0.46 7.65, 0.07 4.75, 0.29 -0.18" stroke="#000000" stroke-width="1" fill="none"></path></g><g stroke-linecap="round" transform="translate(102.56335899096166 645.708973709595) rotate(0 70 5.5999908447265625)"><path d="M-0.27 1.71 C27.19 0.71, 56.94 1.07, 140.29 0.33 M0.3 -0.91 C43.95 0.14, 87.3 0.24, 139.46 0.53 M139.07 -0.46 C140.6 3.08, 139.03 7.13, 139.26 11.23 M139.74 -0.49 C139.95 4.58, 139.75 8.07, 139.87 11.59 M138.86 10.06 C110.88 12.52, 82.92 10.53, -1.97 9.91 M140.2 10.28 C95.85 10.22, 50.89 11.07, -0.59 11.38 M-0.06 10.39 C-0.41 9.05, 0.26 5.58, -0.11 0.66 M0.53 10.9 C0.11 8.58, 0.25 5.69, 0.09 0.36" stroke="#000000" stroke-width="1" fill="none"></path></g><g stroke-linecap="round" transform="translate(119.36334678393041 679.3089798131107) rotate(0 53.20001220703125 33.19999694824219)"><path d="M-1.23 -1.42 C21.45 -0.97, 44.1 -1.3, 107.34 -0.17 M0.15 0.57 C29.07 0.75, 56.8 0.56, 106.96 -0.81 M107.21 0.97 C107.98 17.19, 108 30.64, 106.94 65.28 M107.04 0.27 C105.32 14.8, 106.66 30.83, 106.22 66.15 M107.68 66.97 C83.76 65.83, 63.58 65.6, -0.46 64.48 M106.31 66.74 C63.42 65.57, 22.72 66.41, 0.91 67.03 M1.92 68.33 C1.25 51.85, -1.07 37, 0.63 0 M0.79 66.35 C0.87 44.99, 0.65 24.13, 0.24 -0.84" stroke="#000000" stroke-width="1" fill="none"></path></g><g stroke-linecap="round" transform="translate(2339.9555460611978 492.4475247822111) rotate(0 197.99997965494777 120.66665649414068)"><path d="M0.78 0.71 C97.76 -0.92, 195.03 -0.49, 395.69 0.86 M0.34 -0.11 C131.5 0.38, 263.5 -0.4, 395.73 -0.32 M395.76 -0.39 C398.19 71.74, 396.66 139.45, 397.11 240.76 M395.98 -0.76 C394.35 73.55, 394.56 148.39, 395.82 241.13 M396.82 241.39 C309.91 241.21, 224.98 242.3, 0.2 241.78 M396.45 241.5 C274.49 240.35, 153.14 240.5, -0.03 241.83 M-0.05 242.21 C-2.08 161.78, -2.26 85.87, -0.48 1.24 M0.71 242.1 C-0.9 155.53, -0.93 69.55, -0.62 0.56" stroke="#000000" stroke-width="1" fill="none"></path></g><g transform="translate(1927.5159763334764 529.4244437965565) rotate(0 52 12.5)"><text x="0" y="18" font-family="Virgil, Segoe UI Emoji" font-size="20px" fill="#000000" text-anchor="start" style="white-space: pre;" direction="ltr">Live tests</text></g><g stroke-linecap="round"><g transform="translate(2195.071518325663 626.2022215743341) rotate(0 65.92350355703184 -0.6075151948182338)"><path d="M0.86 0.18 C22.38 0.35, 108.17 0.21, 129.76 0.12 M-0.15 -0.77 C21.69 -0.84, 110.38 -1.19, 132 -1.48" stroke="#000000" stroke-width="1" fill="none"></path></g><g transform="translate(2195.071518325663 626.2022215743341) rotate(0 65.92350355703184 -0.6075151948182338)"><path d="M104.19 7.49 C115.59 4.7, 124.69 -0.36, 133.55 -3.37 M104.54 9.53 C109.62 7.48, 115.11 4.95, 132.09 -2.36" stroke="#000000" stroke-width="1" fill="none"></path></g><g transform="translate(2195.071518325663 626.2022215743341) rotate(0 65.92350355703184 -0.6075151948182338)"><path d="M104.03 -13.03 C115.33 -8.56, 124.48 -6.35, 133.55 -3.37 M104.38 -10.99 C109.39 -8.7, 114.92 -6.9, 132.09 -2.36" stroke="#000000" stroke-width="1" fill="none"></path></g></g><g stroke-linecap="round" transform="translate(1871.9207491373695 589.6307951827323) rotate(0 45.28570992606001 9.142859322684217)"><path d="M1.81 -1.32 C23.87 0.9, 44.55 0.41, 90.75 -1.06 M0.23 -0.4 C24.38 0.37, 48.34 -0.36, 89.96 -0.22 M90.33 0.24 C90.11 7.18, 90.62 14.48, 91.78 17.51 M91.45 -0.6 C91.4 6.23, 89.9 13.45, 90.69 18.6 M90.75 18.01 C70.11 19.17, 52.26 18.73, -1.51 18.47 M90.81 19 C57.86 19.47, 25.81 18.93, 0.01 17.7 M-1 19.19 C-1.13 12.78, 1.59 8.71, 0.76 -0.82 M-0.65 17.49 C-0.31 14.9, -0.52 10.87, -0.26 0.38" stroke="#000000" stroke-width="1" fill="none"></path></g><g transform="translate(2390.2990745995817 450.4403988616632) rotate(0 156.5 12.5)"><text x="0" y="18" font-family="Virgil, Segoe UI Emoji" font-size="20px" fill="#000000" text-anchor="start" style="white-space: pre;" direction="ltr">Admin Dashboard - Live Status</text></g><g stroke-linecap="round" transform="translate(2000.4921995070677 587.6307930029052) rotate(0 73.28571864536798 9.142859322684217)"><path d="M-1.14 1.24 C55.26 0.15, 110.05 0.23, 147.93 0.52 M0.51 0.63 C37.12 -0.33, 75.99 -0.6, 146.78 -0.57 M145.54 -0.65 C147.15 5.13, 145.49 7.11, 148.15 18.51 M145.85 -0.62 C147.01 5.45, 147.56 11.42, 146.14 17.81 M145.74 18.93 C101.75 17.22, 56.69 16.56, 0.67 19.64 M147.48 18.1 C91.04 18.94, 34.69 19, 0.16 18.58 M1.35 19.05 C-0.44 11.43, 0.82 7.12, 0.2 0.01 M0.11 18.86 C1.01 11.09, -0.21 4.58, -0.46 0.25" stroke="#000000" stroke-width="1" fill="none"></path></g><g transform="translate(1820.4921668096626 586.8450787171912) rotate(0 3 12.5)"><text x="0" y="18" font-family="Virgil, Segoe UI Emoji" font-size="20px" fill="#000000" text-anchor="start" style="white-space: pre;" direction="ltr">1</text></g><g transform="translate(1822.5635910214364 624.4165116482736) rotate(0 7.5 12.5)"><text x="0" y="18" font-family="Virgil, Segoe UI Emoji" font-size="20px" fill="#000000" text-anchor="start" style="white-space: pre;" direction="ltr">2</text></g><g stroke-linecap="round" transform="translate(1872.1804794888044 623.2151996698467) rotate(0 45.28570992606001 9.142859322684217)"><path d="M1.81 1.44 C31 0.95, 63.36 0.09, 91.18 1.22 M0.3 -0.21 C26.64 -0.13, 52.91 1.1, 89.59 0.11 M91.7 0.36 C91.05 5.14, 89.47 7.93, 92.13 20.06 M90.26 0.53 C91.34 5.15, 90.16 11.6, 90.54 17.54 M90.77 16.92 C54.5 18.73, 21.89 19.35, -1.78 19.32 M91.48 17.8 C67.02 17.06, 43.21 17.34, -0.26 18.73 M-0.04 19.91 C-0.17 12.57, -1.81 7.43, -0.02 0.47 M0.65 17.5 C0.31 13.61, 0.55 8.09, -0.2 0.37" stroke="#000000" stroke-width="1" fill="none"></path></g><g stroke-linecap="round" transform="translate(1999.0376762471237 622.5399061065982) rotate(0 73.28571864536798 9.142859322684217)"><path d="M-0.84 -0.33 C58.05 1.27, 112.13 0.4, 147.85 1.41 M-0.38 0.38 C51.94 -1.7, 104.29 -1.97, 146.81 0.75 M146.1 0.73 C144.95 5.09, 145.57 9.85, 147.91 18.57 M147.41 -0.44 C145.61 5.26, 146.49 12.02, 146.12 17.53 M144.95 16.34 C115.44 19.45, 83.07 19.96, -0.1 16.76 M147.11 18.13 C96.14 17.82, 46.49 17.77, 0.02 17.44 M1.51 16.98 C0.43 14.66, -0.2 9.03, 0.86 0.42 M-0.81 17.51 C0.32 12.95, 0.21 10.16, 0.66 -0.51" stroke="#000000" stroke-width="1" fill="none"></path></g></svg>